<svg id="Layer_1" data-name="Layer 1" xmlns="http://www.w3.org/2000/svg" viewBox="0 0 511.86 487.89"><defs><style>.cls-1{fill:#c5b7d8;}</style></defs><path class="cls-1" d="M290.51,167.78H249.38V170h41.13c55.23,0,88.93,43.63,88.93,94.44,0,51.08-33.7,94.71-88.93,94.71H249.38V250.81H221.5V253c4.13,2.5,6.07,6.63,6.07,16.3v73.53c0,9.66-1.94,13.81-6.07,16.29v1.94h69c64.06,0,110.75-42,110.75-96.65C401.26,210,354.57,167.78,290.51,167.78Z"/><path class="cls-1" d="M159.08,285.27a38.46,38.46,0,0,0,5.26,0Z"/><path class="cls-1" d="M249.38,285.27h-85a38.46,38.46,0,0,1-5.26,0c-20.39-1.2-32.17-17.34-32.17-42.48V180.11c0-6,1.17-8.38,3.68-9.89v-1.33H109.81v1.33c2.67,1.51,3.84,3.86,3.84,9.89v62.68c0,25.44,14.56,39.34,33.88,43.25a60.17,60.17,0,0,0,12.06,1.17h89.79Z"/><path class="cls-1" d="M227.65,168.89a34.54,34.54,0,0,0-34.53,34.53,34.52,34.52,0,0,0-34.51-34.53,34.51,34.51,0,0,0,34.51-34.53A34.53,34.53,0,0,0,227.65,168.89Z"/><path class="cls-1" d="M346.84,264.43a35.47,35.47,0,0,0-35.47,35.46,35.45,35.45,0,0,0-35.45-35.46A35.45,35.45,0,0,0,311.37,229,35.47,35.47,0,0,0,346.84,264.43Z"/><path class="cls-1" d="M28.1,260.47H26.31A26.34,26.34,0,0,0,0,234.16v-1.8a26.34,26.34,0,0,0,26.31-26.31H28.1a26.34,26.34,0,0,0,26.31,26.31v1.8A26.34,26.34,0,0,0,28.1,260.47Zm-21-27.21A28.19,28.19,0,0,1,27.2,253.41a28.22,28.22,0,0,1,20.15-20.15A28.26,28.26,0,0,1,27.2,213.11,28.23,28.23,0,0,1,7.06,233.26Z"/><path class="cls-1" d="M485.55,260.47h-1.8a26.33,26.33,0,0,0-26.3-26.31v-1.8a26.33,26.33,0,0,0,26.3-26.31h1.8a26.34,26.34,0,0,0,26.31,26.31v1.8A26.34,26.34,0,0,0,485.55,260.47ZM464.5,233.26a28.19,28.19,0,0,1,20.15,20.15,28.19,28.19,0,0,1,20.15-20.15,28.22,28.22,0,0,1-20.15-20.15A28.22,28.22,0,0,1,464.5,233.26Z"/><path class="cls-1" d="M59.76,149.53l-2.35,5.61-.26-.11c-.55-1.35-1.94-1.59-5-1.69l-5.38-.16-3.79,9,2.35,2.15c2.82,2.55,4.53,3.49,6.81,2.65l.26.1-1.81,4.3-.26-.11a18.11,18.11,0,0,0-5.12-6.65L32.11,152.72l-3.64-.11,1.21-2.88,21.49.68a23.58,23.58,0,0,0,8.34-1Zm-13.35,3.64-13.84-.42L42.7,162Z"/><path class="cls-1" d="M50.7,171.76l-.6-.25,0-.1c-.9-2.07-2-3.81-5.06-6.56L32,153l-3.93-.13,1.43-3.4h.19l21.48.68a22.8,22.8,0,0,0,8.26-1l.09,0,.6.24-2.57,6.11-.61-.26,0-.1c-.49-1.19-1.81-1.43-4.79-1.52l-5.19-.16-3.65,8.69,2.21,2c2.66,2.41,4.32,3.4,6.54,2.59l.1,0,.6.25Zm-3.37-5.4A15.62,15.62,0,0,1,50.45,171L52,167.34A4.91,4.91,0,0,1,47.33,166.36ZM33.29,153l9.31,8.48,3.41-8.1Zm13.52-.13,5.32.16c3,.1,4.51.35,5.17,1.63l2.08-5a24.47,24.47,0,0,1-8.22.94L29.86,150l-1,2.34Z"/><path class="cls-1" d="M69.84,120,72.92,122c1.16.74,1.81.82,2.45.48l.23.14L73,126.68l-.23-.15c0-.69-.32-1.27-1.49-2l-3.07-1.94L61,134.1l-.23-.15L53.08,113l-2.94-1.86,1.6-2.53,17.87,11.28,2.19-3.47.24.15ZM68,122.43l-14.56-9.2,7.49,20.39Z"/><path class="cls-1" d="M61.05,134.47l-.54-.34,0-.09-7.62-20.86-3.09-2,1.89-3,17.87,11.29L71.72,116l.69.44L70.22,120l2.84,1.8c1.18.74,1.69.74,2.18.47l.14-.08.6.38-2.86,4.53-.6-.37v-.16c0-.54-.22-1-1.36-1.77L68.33,123ZM54,113.88,61,133l6.62-10.5Zm14.19,8.32,3.3,2.09c1,.62,1.47,1.18,1.58,1.87l2.09-3.31a2.92,2.92,0,0,1-2.36-.64L51.83,109l-1.32,2.08,2.41,1.52h0l15.24,9.63Z"/><path class="cls-1" d="M92.94,79.91c5.8,5.25,5.77,14.23-.39,21l-6.63,7.33-.2-.19c.13-.68-.12-1.28-1.15-2.21L68,90.82c-1-.92-1.65-1.12-2.31-.92l-.23-.21,6.62-7.32C78.21,75.58,87.17,74.68,92.94,79.91Zm-2.1,2.31c-5.38-4.88-13.25-5.49-18.55.36l-4,4.37L88.4,105.11l3.95-4.36C97.65,94.89,96.26,87.13,90.84,82.22Z"/><path class="cls-1" d="M85.94,108.64l-.51-.47,0-.15c.1-.52,0-1-1.07-2L67.79,91c-1-.92-1.54-1-2.05-.86l-.15,0L65,89.71l6.81-7.52a17.39,17.39,0,0,1,10.76-5.83,13.26,13.26,0,0,1,10.51,3.35h0A13.23,13.23,0,0,1,97.5,89.85a17.34,17.34,0,0,1-4.75,11.26ZM66.12,89.56a3.17,3.17,0,0,1,2,1.06l16.61,15A2.94,2.94,0,0,1,86,107.75l2.2-2.43h0l-20.1-18.2-2.23,2.47Zm2.6-2.63,19.66,17.8,3.77-4.16a11.82,11.82,0,0,0,3.2-9.41,14,14,0,0,0-4.69-8.74h0a13.91,13.91,0,0,0-9.13-3.77h-.12a11.83,11.83,0,0,0-8.92,4.11ZM91,82a14.49,14.49,0,0,1,4.86,9.08,11.86,11.86,0,0,1-.68,5.56A15.47,15.47,0,0,0,97,89.84a12.71,12.71,0,0,0-4.2-9.73h0A12.72,12.72,0,0,0,82.67,76.9a15.6,15.6,0,0,0-6.89,2.59,12,12,0,0,1,5.63-1.38h.13A14.44,14.44,0,0,1,91,82Z"/><path class="cls-1" d="M130.78,66.35,126,70.11l-.17-.22c.17-1.44-.93-2.33-3.58-3.92l-4.62-2.75-7.7,6,1,3c1.23,3.6,2.27,5.25,4.67,5.62l.17.22L112.11,81l-.17-.22c.24-2.45,0-4.58-1.25-8.31l-5.63-16.76-3.12-1.87,2.46-1.93,18.44,11a23.92,23.92,0,0,0,7.77,3.19Zm-13.44-3.3L105.46,56l4.37,13Z"/><path class="cls-1" d="M112.07,81.39l-.41-.52v-.11c.22-2.24.09-4.3-1.23-8.19l-5.6-16.67-3.37-2,2.91-2.28.15.09,18.45,11a23.26,23.26,0,0,0,7.69,3.15l.09,0,.4.51L126,70.49l-.4-.52v-.11c.15-1.28-.89-2.13-3.45-3.66l-4.46-2.65-7.41,5.81,1,2.84c1.15,3.4,2.11,5.08,4.45,5.45h.11l.4.52ZM111.74,75a15.35,15.35,0,0,1,.49,5.54l3.1-2.43A4.93,4.93,0,0,1,111.74,75Zm6.08-12,4.57,2.72c2.62,1.57,3.77,2.5,3.72,3.94l4.24-3.33a24.11,24.11,0,0,1-7.64-3.17L104.42,52.25l-2,1.57,15.4,9.2Zm-11.88-6.46,4,11.94,6.91-5.42Z"/><path class="cls-1" d="M158.49,41.62c2.65,4.89-2.22,9.65-6.7,12.08l-9.54,5.19-.14-.25c.35-.59.31-1.24-.35-2.46L131.08,36.5c-.66-1.21-1.19-1.6-1.88-1.63l-.15-.28,8-4.37c4.48-2.44,10.73-4.66,13.39.23,2,3.72-.63,7-4,9.36C150.8,38,156.19,37.38,158.49,41.62Zm-19.83,2.31,4.55-2.47c5.69-3.09,6.2-6.46,4.54-9.52S143,27.4,137.26,30.5L132.71,33Zm17.12-.84c-1.66-3.06-5.23-5.25-10.93-2.16l-6,3.28,6.81,12.53,6-3.28C157.35,50.37,157.46,46.18,155.78,43.09Z"/><path class="cls-1" d="M142.14,59.25l-.33-.61.07-.13c.27-.46.31-1-.35-2.2L130.84,36.63c-.66-1.21-1.12-1.47-1.65-1.49H129l-.35-.65L137,30c6.85-3.72,11.6-3.6,13.75.35,1.56,2.87.66,5.77-2.68,8.62,3-1,8.27-1.88,10.67,2.54h0c1.24,2.28,1,4.79-.68,7.25a18,18,0,0,1-6.12,5.2ZM129.53,34.64c.68.14,1.2.65,1.78,1.73L142,56.05a3,3,0,0,1,.51,2.39l2.88-1.56h0L132.45,33.05Zm9.65,9.68,6.55,12.06,5.8-3.16c2.55-1.38,4.13-3.07,4.69-5a6.5,6.5,0,0,0-.68-5h0A6.48,6.48,0,0,0,151.75,40c-1.94-.58-4.22-.18-6.77,1.21ZM156,43a6.77,6.77,0,0,1-.66,7.94,13.61,13.61,0,0,0,2.23-2.47c1.59-2.31,1.81-4.56.66-6.68h0c-2-3.73-6.33-3.34-9.25-2.53A6.77,6.77,0,0,1,156,43Zm-23-9.89,5.7,10.5,4.31-2.34c4.82-2.62,6.31-5.7,4.43-9.16s-5.31-3.95-10.13-1.34Zm9.75-4.57A5.64,5.64,0,0,1,148,31.81q2.23,4.13-1.25,7.49c3.89-2.92,5.07-5.85,3.51-8.72-1.83-3.38-5.54-3.19-9.19-1.88A8.56,8.56,0,0,1,142.82,28.5Z"/><path class="cls-1" d="M188.17,8.85l.1.3c-1,1-.7,3.11-.16,4.72l4.34,12.91a9.14,9.14,0,0,1-5.94,12c-5.57,1.88-11.3.35-13.59-6.46l-4.72-14c-.45-1.35-.89-1.78-1.6-1.92,0-.07-.1-.3-.1-.3l4.64-1.56.1.3c-.45.53-.53,1.14-.08,2.49l4.71,14c2.08,6.18,6.52,8.85,11.8,6.57,4.48-1.92,5.94-6.87,4.52-11.06L188,14.37c-.69-2.06-2.43-4-4.35-3.66,0-.07-.1-.3-.1-.3Z"/><path class="cls-1" d="M182.24,39.84a10.09,10.09,0,0,1-3.86-.74,10.43,10.43,0,0,1-5.72-6.66l-4.71-14c-.45-1.33-.84-1.63-1.4-1.74l-.16,0-.23-.71,5.15-1.73.24.7-.1.12c-.36.41-.48.91,0,2.22l4.71,14c1.11,3.31,2.91,5.59,5.18,6.61a7.61,7.61,0,0,0,6.25-.21c4.58-2,5.67-6.88,4.38-10.73l-4.21-12.5c-.65-1.93-2.32-3.8-4-3.48l-.23,0-.26-.78,5.15-1.73.23.71-.11.11c-1.09,1.16-.35,3.7-.1,4.45l4.35,12.91a9.45,9.45,0,0,1-6.11,12.39A13.86,13.86,0,0,1,182.24,39.84ZM167,16.27c.66.24,1.08.82,1.48,2l4.71,14a9.86,9.86,0,0,0,5.42,6.33,10.62,10.62,0,0,0,6.64.32,7.52,7.52,0,0,1-4.14-.54c-2.41-1.08-4.31-3.47-5.47-6.93l-4.72-14a2.82,2.82,0,0,1-.05-2.49Zm17.39-5.86a4.52,4.52,0,0,1,3.15,2.34,4.73,4.73,0,0,1,.33-3.51Z"/><path class="cls-1" d="M227.82,24.13,227.75,29,211.5,31.68s0-.19,0-.27c.56-.45.74-1.08.51-2.45L208.31,6.88c-.24-1.41-.6-1.91-1.28-2.15,0-.08-.05-.32-.05-.32l4.83-.8s0,.24.05.32c-.53.44-.71,1-.48,2.44l4.05,24.38,3.55-.59A11.84,11.84,0,0,0,227.56,24Z"/><path class="cls-1" d="M211.28,32l-.11-.69.12-.1c.44-.35.64-.82.41-2.19L208,6.92c-.23-1.38-.56-1.74-1.1-1.94l-.15-.05-.12-.74L212,3.3l.12.73-.12.1c-.41.35-.61.82-.38,2.19l4,24.12,3.28-.54a11.68,11.68,0,0,0,8.4-6l.12-.22.64.29L228,29.22ZM207.43,4.61c.62.35.94,1,1.14,2.22l3.67,22.09a2.88,2.88,0,0,1-.33,2.42l3.26-.54h0l-4-24.39c-.21-1.23-.12-1.94.34-2.46Zm20.12,20a12.33,12.33,0,0,1-6,5.16l6-1Z"/><path class="cls-1" d="M286.07,4.74l-1.52,4-.28,0c-1.8-5.47-4.51-7.71-7.62-8-3.9-.33-6.32,1.69-6.76,4-1.4,7.81,15.7,6.62,14.88,16.47-.39,4.68-4.88,7.63-10.47,7.17-4.68-.39-7.47-2.21-10.34-4.79l1.55-4.39.28,0c1.67,4.19,5,8.07,10.19,8.51,3.35.27,6.32-1.66,6.84-4.11,1.73-8.3-15.42-7-14.6-16.92.27-3.19,3.16-6.95,9.5-6.42C280.75.57,283.9,2.74,286.07,4.74Z"/><path class="cls-1" d="M275.46,28.74c-.39,0-.78,0-1.18,0-4.67-.39-7.48-2.15-10.5-4.86l-.14-.12L265.33,19,266,19l.06.15c.93,2.34,3.77,7.82,10,8.34,3.12.27,6.05-1.49,6.56-3.9.79-3.82-2.57-5.48-6.47-7.39S267.51,12,268,6.72c.3-3.58,3.46-7.19,9.79-6.67,3.49.29,6.83,2.94,8.51,4.49l.14.13L284.73,9l-.66,0L284,8.8c-1.62-4.89-4.11-7.51-7.39-7.79-3.87-.32-6.09,1.76-6.47,3.82-.64,3.52,2.67,5.09,6.51,6.91,4.13,2,8.81,4.19,8.37,9.53C284.67,25.72,280.72,28.74,275.46,28.74Zm-11.19-5.19c2.89,2.57,5.6,4.23,10.05,4.6a12.86,12.86,0,0,0,3.6-.2,8,8,0,0,1-2,.08c-4.49-.37-8.23-3.42-10.31-8.38Zm6.67-21.28a6.41,6.41,0,0,0-2.45,4.49c-.41,4.91,3.78,7,7.84,9s7.64,3.76,6.76,8a5.39,5.39,0,0,1-3,3.52,7.22,7.22,0,0,0,4.38-6c.42-5-3.9-7-8.07-9-3.86-1.84-7.51-3.57-6.8-7.5A4.83,4.83,0,0,1,270.94,2.27ZM277.33.56c3.12.55,5.51,3.16,7.09,7.75l1.33-3.49C284.35,3.55,281,.87,277.69.59Z"/><path class="cls-1" d="M320.1,36.81,314,35.28l.07-.27c1.21-.76.79-2.33-.08-5.32l-3.33-12L305.18,21,303,29.81c-.34,1.34-.21,2,.27,2.47l-.06.27-4.75-1.2.06-.27c.7-.18,1.12-.69,1.45-2l5.47-21.72c.35-1.38.22-2-.31-2.48l.08-.31,4.75,1.2-.08.31c-.66.2-1.07.67-1.41,2l-3.17,12.57,10.09-6.26c4.45-2.79,5.73-4.3,4.56-5.82l.08-.3,5,1.26-.08.3c-2.17.52-4.81,2-9.05,4.57l-2.67,1.69,3.62,13c1.18,4.2,2.12,5.82,3.33,7.47Z"/><path class="cls-1" d="M320.3,37.14l-6.61-1.67.16-.63.09-.06c1-.64.66-2.08-.2-5l-3.23-11.7-5.1,3.14-2.18,8.66c-.34,1.34-.17,1.84.2,2.22l.11.11-.17.67-5.27-1.32.17-.68.15,0c.53-.15.93-.51,1.26-1.85l5.47-21.72c.34-1.35.18-1.82-.24-2.22l-.11-.1.18-.72,5.27,1.32-.18.72-.14,0c-.53.16-.89.52-1.23,1.86l-3,11.92,9.52-5.91c3.2-2,4.64-3.29,4.82-4.31a1.35,1.35,0,0,0-.33-1.11l-.08-.11L319.8,8l5.54,1.39-.18.73-.16,0c-2.17.51-4.82,2-9,4.53l-2.49,1.58L317.1,29c1.12,4,2,5.62,3.29,7.39l.07.11Zm-5.88-2,5.35,1.35a21.06,21.06,0,0,1-3.19-7.31L313,16.2l-2.07,1.28,0,.1,3.32,12C315.08,32.43,315.59,34.18,314.42,35.1Zm-15.48-3.9,3.87,1a3,3,0,0,1-.1-2.44L308.18,8c.3-1.21.67-1.83,1.29-2.13l-4-1a2.75,2.75,0,0,1,.16,2.5l-5.46,21.71C299.91,30.27,299.54,30.9,298.94,31.2ZM320.28,8.62a1.82,1.82,0,0,1,.29,1.34,4.57,4.57,0,0,1-1.87,2.45,26.42,26.42,0,0,1,5.79-2.73Z"/><path class="cls-1" d="M346.12,19.88l-8.25,20.83c-.51,1.28-.47,1.93,0,2.5,0,.07-.1.25-.1.25l-4.55-1.8.1-.26c.68-.11,1.16-.56,1.67-1.84l8.24-20.83c.51-1.29.47-1.94.06-2.49,0-.08.11-.3.11-.3l4.56,1.81-.12.29C347.1,18.14,346.63,18.59,346.12,19.88Z"/><path class="cls-1" d="M337.9,43.81l-5-2,.25-.65.16,0c.52-.09.95-.4,1.46-1.68L343,18.63c.51-1.29.41-1.81.09-2.23l-.09-.12.27-.68,5.06,2-.28.69-.15,0c-.56.07-1,.37-1.49,1.67l-8.25,20.83c-.51,1.28-.4,1.8-.06,2.23l.1.12Zm-4.19-2.24,3.72,1.48a2.84,2.84,0,0,1,.19-2.44l8.25-20.83c.45-1.15.91-1.72,1.58-1.93l-3.8-1.51a2.84,2.84,0,0,1-.19,2.49l-8.24,20.83C334.78,40.76,334.33,41.34,333.71,41.57Z"/><path class="cls-1" d="M386.73,37.43l-.16.28a5.51,5.51,0,0,0-4.34,2.62L371,60.27l-.52-.29-4.52-30.2L356.4,46.6a5.53,5.53,0,0,0,0,5.13c0,.06-.13.24-.13.24l-4.65-2.63.14-.24a5.54,5.54,0,0,0,4.4-2.64l9.68-17.12-.6-4.07,3.47,2,4.41,28.55L382,40.18a5.52,5.52,0,0,0,0-5.08l.16-.28Z"/><path class="cls-1" d="M371.05,60.64l-.87-.49L365.76,30.6l-9.13,16.13a5.35,5.35,0,0,0,0,4.85l.1.13-.35.62-5.12-2.89.36-.62h.28a5.37,5.37,0,0,0,4-2.5l9.64-17-.67-4.52,4.07,2.3,0,.13L373.27,55,381.72,40a5.28,5.28,0,0,0,0-4.79l-.09-.14.08-.15.16-.27.13-.23,5.08,2.87-.37.65h-.26a5.4,5.4,0,0,0-4,2.49Zm-.37-.83.16.1,2.08-3.67-.06-.41-4.39-28.42-2.88-1.63ZM352.2,49.36,356,51.48a6.1,6.1,0,0,1-.2-4A6.09,6.09,0,0,1,352.2,49.36Zm30.17-14.08a6,6,0,0,1,.2,4.13,6,6,0,0,1,3.64-2Z"/><path class="cls-1" d="M410.47,80.82c-4.47,2-9.71,2.37-15.07-2.12-6-5-7.08-14.18-2.06-20.17s14.5-6.3,20.49-1.28c3.27,2.74,4.53,5.24,5.68,9.09L415.71,69l-.21-.18c.73-5.36-.69-11-5.36-13.46-6.12-3.22-13.12,1.32-16,8s-.81,13.14,5.2,16.79c3.06,1.89,6.89,2,11,.32Z"/><path class="cls-1" d="M404.34,82.51a14,14,0,0,1-9.12-3.61A15.13,15.13,0,0,1,390,69a14.05,14.05,0,0,1,3.15-10.66c5-6,14.58-6.58,20.88-1.31,3.37,2.83,4.63,5.43,5.76,9.22l.06.19-4.13,2.92-.49-.41,0-.15c.64-4.69-.4-10.62-5.23-13.18a8.88,8.88,0,0,0-7.3-.45,15,15,0,0,0-8.3,8.37c-2.77,6.55-.81,12.86,5.1,16.45,3.05,1.88,6.76,2,10.72.3l.23-.1.38.75-.26.11A15,15,0,0,1,404.34,82.51ZM404.05,54a13.3,13.3,0,0,0-13.53,15,14.56,14.56,0,0,0,5.05,9.53,13.72,13.72,0,0,0,7.95,3.45,10.56,10.56,0,0,1-4.29-1.48c-6.16-3.74-8.19-10.3-5.31-17.12a15.52,15.52,0,0,1,8.61-8.67,10.32,10.32,0,0,1,3.14-.6A14.66,14.66,0,0,0,404.05,54Zm7.58,2c3.83,2.94,4.71,8.26,4.17,12.62l3.4-2.41a16.14,16.14,0,0,0-5.54-8.77A15.6,15.6,0,0,0,411.63,56Z"/><path class="cls-1" d="M429.24,113.57l-3.92-4.64.21-.18c1.45.12,2.3-1,3.78-3.72l2.59-4.72-6.33-7.48-3,1.13c-3.56,1.35-5.17,2.45-5.45,4.87l-.21.17-3-3.55.21-.18c2.45.15,4.58-.15,8.26-1.55l16.55-6.24,1.75-3.19,2,2.38-10.35,18.84a23.58,23.58,0,0,0-2.9,7.88ZM432.06,100l6.65-12.14-12.82,4.84Z"/><path class="cls-1" d="M429.21,114l-4.27-5,.5-.43h.11c1.29.12,2.09-1,3.53-3.58l2.49-4.55-6.08-7.2-2.81,1.06c-3.35,1.28-5,2.3-5.28,4.65V99l-.5.43-3.36-4L414,95h.1c2.26.13,4.31-.07,8.15-1.54l16.46-6.2,1.89-3.45L443,86.64l-.09.16L432.6,105.64a23.39,23.39,0,0,0-2.88,7.8v.1ZM425.75,109l3.48,4.11a24.07,24.07,0,0,1,2.89-7.75L442.38,86.7l-1.64-1.94-8.63,15.73h0l-2.56,4.67C428.08,107.84,427.19,109,425.75,109Zm.59-16.19,5.67,6.7,6.12-11.15Zm-12,2.71,2.54,3a4.94,4.94,0,0,1,3-3.71A15.23,15.23,0,0,1,414.36,95.55Z"/><path class="cls-1" d="M448.14,142.79l-.24.14-3.12-5.22.24-.14c1.41.35,2.2-1.09,3.75-3.81l4.17-7.42c-.33-.49-.67-1-1-1.49l-1.88-3.15-8.72,5.21c-1.19.71-1.55,1.25-1.55,1.94l-.24.14-2.49-4.17.23-.14c.61.33,1.26.26,2.45-.45L459,112.74c1.22-.73,1.55-1.26,1.55-1.95l.28-.16,3.93,6.58c3.14,5.26,4,11.18-.43,13.84-3.19,1.9-6.64.52-9.45-2.41l-3.53,6.26C449,139,448.53,140.76,448.14,142.79Zm14.58-14.42c2.64-1.58,5.61-4.55,1.76-11l-1.89-3.15-12.24,7.32,1.88,3.15C456.07,131.1,460.11,129.93,462.72,128.37Z"/><path class="cls-1" d="M447.81,143.3l-3.4-5.68.57-.34.1,0c1.15.28,1.82-.82,3.38-3.56l.08-.12,4.09-7.28c-.29-.42-.61-.88-.9-1.36L450,122.07l-8.48,5.07c-1.18.71-1.42,1.18-1.42,1.71V129l-.59.35-2.77-4.63.6-.36.13.07c.47.25,1,.27,2.18-.44l19.23-11.5c1.19-.71,1.42-1.16,1.42-1.71v-.15l.64-.38,4.07,6.81a17.19,17.19,0,0,1,2.67,8,6.6,6.6,0,0,1-3.19,6.18c-2.93,1.74-6.38.94-9.53-2.2L451.57,135c-2.33,4.15-2.8,5.92-3.17,7.81l0,.12Zm-2.62-5.42,2.74,4.58c.37-1.84.91-3.68,3.17-7.7l3.68-6.51a11.37,11.37,0,0,1-1.63-1.73l-4.22,7.5C447.47,136.59,446.62,138.05,445.19,137.88Zm10-9.31c3,3.06,6.27,3.88,9,2.25a6,6,0,0,0,2.93-5.71,12.51,12.51,0,0,0-.6-3.4c.47,2.87-.74,5.15-3.65,6.89h0a7.15,7.15,0,0,1-5,1.18A6.2,6.2,0,0,1,455.18,128.57Zm-4.46-6.94,1.75,2.92c1.65,2.78,3.51,4.36,5.51,4.7a6.63,6.63,0,0,0,4.6-1.11h0c2.54-1.52,5.47-4.27,1.67-10.63l-1.75-2.92Zm-13.18,3.43,2,3.41c.13-.65.63-1.18,1.65-1.79l8.76-5.24h0L462.49,114l-1.7-2.85c-.11.69-.59,1.22-1.66,1.86L439.9,124.46A2.92,2.92,0,0,1,437.54,125.06Z"/><path class="cls-1" d="M464.64,169.25l-4.76,1-6-14.86.26-.1c.55.41,1.2.45,2.49-.07l20.75-8.42c1.28-.52,1.72-1,1.83-1.68l.29-.12L485,158.68l-3.75,2.42-.22-.13a10.83,10.83,0,0,0,.66-9.6l-1-2.57-10.8,4.38,4.55,8.9-1.87.76-3-9.54-14,5.68,1.2,3a12,12,0,0,0,7.88,7Z"/><path class="cls-1" d="M459.72,170.55l-6.22-15.32.65-.26.12.09c.43.32,1,.42,2.22-.1l20.76-8.42c1.28-.52,1.58-.95,1.66-1.47l0-.15.68-.28.1.25,5.64,13.89-4.08,2.63-.58-.33.11-.23a10.59,10.59,0,0,0,.66-9.38l-.94-2.31-10.27,4.16,4.54,8.9-2.41,1-3-9.54L456,159.12l1.1,2.72a11.67,11.67,0,0,0,7.71,6.87l.24.07-.15.7Zm-2-6.23,2.28,5.61,4.08-.85A12.29,12.29,0,0,1,457.77,164.32Zm12.46-9.86,2.5,8,1.33-.54Zm12.41-1a11.19,11.19,0,0,1-1.11,7.1l3.16-2Zm-28.37,2.18,1.23,3h0l25.11-10.19-1.25-3.08c-.21.66-.78,1.12-1.92,1.58l-20.75,8.42A2.93,2.93,0,0,1,454.27,155.69Z"/><path class="cls-1" d="M36.83,352.6,34.41,347l.25-.11c1.35.53,2.49-.31,4.7-2.47l3.82-3.78-3.9-9-3.18.22c-3.8.28-5.65.87-6.62,3.1l-.26.11-1.85-4.28.25-.11a18,18,0,0,0,8.35.89l17.65-1.21,2.59-2.55,1.25,2.86L42.13,345.77a23.71,23.71,0,0,0-5,6.72Zm6.6-12.17,9.86-9.72-13.68,1Z"/><path class="cls-1" d="M36.69,353l-2.64-6.07.6-.26.11,0c1.2.48,2.28-.33,4.41-2.41l3.69-3.65L39.11,332l-3,.2c-3.58.26-5.45.76-6.39,2.93l-.05.1-.6.26L27,330.7l.6-.27.1,0c2.12.78,4.15,1.17,8.24.87l17.55-1.2,2.81-2.76,1.47,3.39-.13.13L42.32,346a23.33,23.33,0,0,0-5,6.64l0,.09Zm-1.89-5.71,2.14,4.94a24.41,24.41,0,0,1,5-6.6l15.2-14.94-1-2.33L43.34,340.9h0l-3.78,3.74C37.37,346.77,36.17,347.66,34.8,347.24ZM40,331.91l3.51,8L52.58,331Zm-12.25-.85,1.57,3.61a4.93,4.93,0,0,1,3.9-2.69A15.7,15.7,0,0,1,27.76,331.06Z"/><path class="cls-1" d="M59.55,378.66l-3,2c-1.16.75-1.51,1.31-1.47,2l-.23.15-2.61-4.05.23-.15c.62.31,1.29.25,2.45-.5l3.05-2-7.39-11.45.23-.14L73,366.41l2.92-1.88,1.63,2.52L59.78,378.51,62,382l-.23.15ZM58.15,376l14.47-9.34L51,364.88Z"/><path class="cls-1" d="M54.72,383.18l-2.91-4.5.59-.38.14.07c.49.24,1,.25,2.18-.49l2.83-1.82-7.39-11.45.54-.34h.09l22.13,1.86,3.07-2,1.91,3-.22.15L60.15,378.59,62.38,382l-.68.44L59.47,379l-2.83,1.83c-1.16.75-1.37,1.22-1.34,1.78v.16ZM52.65,379l2.13,3.29c.09-.67.57-1.23,1.57-1.87L77.16,367l-1.34-2.07L55,378.34A2.9,2.9,0,0,1,52.65,379Zm-1.15-13.8,6.73,10.43,13.58-8.77Z"/><path class="cls-1" d="M95.38,409.85c-5.75,5.3-14.69,4.47-20.9-2.27l-6.69-7.26.21-.19c.66.2,1.28,0,2.3-.94L86.76,384c1-.93,1.27-1.54,1.13-2.21l.23-.22,6.69,7.26C101,395.58,101.1,404.58,95.38,409.85Zm-2.11-2.29c5.34-4.93,6.66-12.7,1.31-18.51l-4-4.32L70.7,403.06l4,4.33C80,413.2,87.89,412.51,93.27,407.56Z"/><path class="cls-1" d="M86.57,413.56a16.88,16.88,0,0,1-12.28-5.8l-6.88-7.46.2-.18.21-.19.11-.1.14,0c.51.15,1,.06,2.05-.88l16.46-15.17c1-.94,1.15-1.45,1-2l0-.15.55-.5L95,388.66c6.22,6.75,6.46,15.95.55,21.39h0A13.1,13.1,0,0,1,86.57,413.56Zm-8-2.94c5.52,3.44,12.09,3.23,16.65-1s5.32-10.94,2.17-16.79c2.22,5.38.09,11.19-3.92,14.89h0a14.58,14.58,0,0,1-9.47,4A11.85,11.85,0,0,1,78.55,410.62Zm-7.47-7.54,3.81,4.13a11.8,11.8,0,0,0,8.84,4H84a14,14,0,0,0,9.12-3.88h0c4.84-4.46,6.84-12.11,1.3-18.12l-3.8-4.13Zm-2.79-2.62,2.22,2.41h0L90.44,384.5l-2.25-2.44c0,.69-.34,1.32-1.24,2.15L70.48,399.39A3,3,0,0,1,68.29,400.46Z"/><path class="cls-1" d="M116,444.63l-4.8-3.72.17-.22c1.44-.19,2-1.47,2.93-4.43l1.54-5.15-7.75-6-2.68,1.72c-3.2,2.07-4.54,3.48-4.32,5.9l-.17.22-3.68-2.86.17-.22c2.43-.36,4.45-1.1,7.75-3.23L120,417.09l1-3.49,2.47,1.91-6.2,20.58a24,24,0,0,0-1.2,8.32Zm-.06-13.84,4-13.26-11.53,7.4Z"/><path class="cls-1" d="M116,445,110.78,441l.4-.52h.11c1.28-.16,1.84-1.38,2.71-4.24l1.49-5L108,425.44l-2.53,1.62c-3,1.94-4.41,3.29-4.19,5.64v.11l-.4.51-4.11-3.18.4-.52h.11c2.23-.34,4.19-1,7.64-3.2l14.81-9.5,1.14-3.76,2.92,2.26,0,.18-6.2,20.58a23.62,23.62,0,0,0-1.19,8.23v.1Zm-4.41-4.1,4.26,3.3a24.33,24.33,0,0,1,1.21-8.19l6.15-20.41-2-1.56L116,431.24h0l-1.53,5.1C113.63,439.26,113,440.61,111.6,440.91ZM97.65,430.1l3.12,2.42a4.91,4.91,0,0,1,2.13-4.25A15.43,15.43,0,0,1,97.65,430.1ZM108.8,425l7,5.39,3.65-12.19Z"/><path class="cls-1" d="M154.23,458.31c-2.63,4.91-9.29,3.44-13.78,1l-9.58-5.13L131,454c.7,0,1.22-.43,1.87-1.65l10.58-19.74c.65-1.22.69-1.87.33-2.47l.15-.28,8.08,4.33c4.49,2.41,9.79,6.41,7.16,11.32-2,3.73-6.16,3.29-10,1.8C153.05,449.88,156.5,454.06,154.23,458.31Zm-2.72-1.46c1.64-3.06,1.51-7.25-4.2-10.31l-6.05-3.25-6.74,12.57,6.06,3.25C146.29,462.16,149.85,460,151.51,456.85ZM141.41,443l4.56,2.44c5.71,3.06,8.8,1.63,10.45-1.43s1.15-6.51-4.56-9.57L147.3,432Z"/><path class="cls-1" d="M148.26,461.86a17.77,17.77,0,0,1-7.94-2.27l-9.81-5.26.33-.62H131c.53,0,1-.29,1.65-1.51l10.57-19.74c.65-1.22.62-1.74.34-2.2l-.07-.13.34-.65,8.32,4.46a20.59,20.59,0,0,1,6.33,4.78c1.85,2.28,2.17,4.6.93,6.9-1.54,2.88-4.45,3.72-8.67,2.49,2.48,2,6.11,5.89,3.74,10.32h0A6.57,6.57,0,0,1,148.26,461.86Zm-3.59-1.08c3.71,1.05,7.51.77,9.32-2.6,2-3.74-.7-7.13-3-9.13a7.11,7.11,0,0,1,1.42,2.57,7.14,7.14,0,0,1-7.76,9.16Zm-9.78-5,5.82,3.12c2.55,1.37,4.84,1.76,6.78,1.16a6.64,6.64,0,0,0,3.79-3.31h0a6.48,6.48,0,0,0,.63-5c-.58-1.95-2.17-3.63-4.72-5l-5.82-3.12Zm-3.5-1.56,2.89,1.55h0l12.79-23.89-2.92-1.57a2.87,2.87,0,0,1-.47,2.44l-10.58,19.75C132.55,453.51,132,454,131.39,454.19Zm18.33-7c4.57,1.64,7.67,1,9.21-1.86,1.12-2.08.82-4.2-.88-6.3a14.55,14.55,0,0,0-2.62-2.44,5.78,5.78,0,0,1,1.22,7.53C155.18,446.89,152.86,447.92,149.72,447.22Zm-7.95-4.32,4.33,2.32c4.83,2.58,8.22,2.14,10.08-1.33s.39-6.61-4.45-9.2l-4.32-2.32Z"/><path class="cls-1" d="M198.24,453.2s-.08.22-.1.3c-1.42.24-2.44,2.06-3,3.67l-4.31,12.93a9.15,9.15,0,0,1-12,6c-5.59-1.85-9.24-6.52-7-13.34l4.66-14c.45-1.35.36-2-.12-2.5l.1-.3,4.64,1.55-.1.3c-.67.15-1.11.59-1.56,1.94l-4.66,14c-2.05,6.19-.12,11,5.47,12.35,4.73,1.16,8.88-1.92,10.27-6.11l4.17-12.52c.68-2.06.47-4.67-1.28-5.54,0-.08.1-.3.1-.3Z"/><path class="cls-1" d="M182.14,477a10.76,10.76,0,0,1-3.36-.56,11.62,11.62,0,0,1-6.57-4.93,10.39,10.39,0,0,1-.57-8.76l4.67-14c.44-1.33.31-1.81-.07-2.24l-.11-.11.24-.71,5.15,1.72-.23.7-.15,0c-.53.12-.92.45-1.36,1.76l-4.66,14c-1.11,3.31-1.05,6.22.16,8.4a7.62,7.62,0,0,0,5.11,3.6c4.84,1.19,8.68-2.09,10-5.94l4.16-12.51c.64-1.94.46-4.42-1.14-5.22l-.22-.11.27-.77,5.16,1.71-.24.71-.16,0c-1.57.27-2.51,2.75-2.76,3.5l-4.3,12.93a9.86,9.86,0,0,1-4.8,5.79A9.21,9.21,0,0,1,182.14,477Zm-5.3-30.59c.39.59.37,1.31,0,2.5l-4.66,14a9.87,9.87,0,0,0,.51,8.32,10.6,10.6,0,0,0,5.12,4.25,7.44,7.44,0,0,1-3-2.92c-1.28-2.32-1.35-5.37-.19-8.83l4.66-14c.39-1.18.8-1.77,1.45-2Zm17.42,5.79a4.52,4.52,0,0,1,1.11,3.77,4.74,4.74,0,0,1,2.38-2.61Z"/><path class="cls-1" d="M225.67,481.75,224,486.33l-16.26-2.66s0-.2,0-.28c.68-.24,1.05-.78,1.28-2.15l3.62-22.1c.23-1.41,0-2-.52-2.45,0-.08.05-.31.05-.31l4.83.79s0,.23-.05.31c-.64.26-1,.76-1.23,2.16l-4,24.4,3.55.59a11.88,11.88,0,0,0,10.11-3.07Z"/><path class="cls-1" d="M224.21,486.63l-.22,0-16.52-2.71.11-.69.15-.06c.52-.19.88-.58,1.1-1.94l3.62-22.11c.23-1.38,0-1.83-.42-2.19l-.12-.1.12-.73,5.36.88-.12.73-.14.05c-.51.2-.84.59-1.07,2l-3.95,24.13,3.28.54a11.63,11.63,0,0,0,9.88-3l.19-.17.52.48Zm-6.33-1.58,6,1,1.4-3.93A12.31,12.31,0,0,1,217.88,485.05Zm-9.6-1.57,3.25.53h0l4-24.4c.2-1.23.52-1.88,1.11-2.23l-4-.66c.48.53.57,1.24.37,2.47l-3.62,22.1A2.9,2.9,0,0,1,208.28,483.48Z"/><path class="cls-1" d="M284.19,462.25l-.84,4.19-.27,0c-2.69-5.09-5.73-6.86-8.84-6.6-3.9.33-6,2.72-6,5.1-.09,7.94,16.58,3.93,17.41,13.77.39,4.68-3.55,8.34-9.14,8.81-4.68.39-7.73-.94-11-3l.8-4.58.28,0c2.34,3.85,6.3,7.13,11.46,6.7,3.34-.28,6-2.68,6.07-5.19.32-8.47-16.38-4.38-17.21-14.26-.27-3.19,2-7.38,8.3-7.91C278.25,459,281.71,460.63,284.19,462.25Z"/><path class="cls-1" d="M274.9,487.89c-3.78,0-6.51-1.21-9.53-3.12l-.15-.09.87-5,.65-.06.09.14c1.31,2.15,5,7.08,11.21,6.57,3.1-.26,5.71-2.47,5.82-4.93.15-3.9-3.45-5-7.61-6.22s-9.16-2.74-9.6-8a7,7,0,0,1,1.74-5.15,9.82,9.82,0,0,1,6.81-3c3.51-.32,7.22,1.76,9.14,3l.15.1-.91,4.58-.66.05-.08-.16c-2.41-4.55-5.32-6.72-8.58-6.45-3.9.33-5.71,2.73-5.75,4.83,0,3.58,3.48,4.58,7.57,5.74,4.4,1.25,9.39,2.67,9.83,8a7.58,7.58,0,0,1-2.4,6.2,11.42,11.42,0,0,1-7,2.9C276,487.87,275.43,487.89,274.9,487.89Zm-9.09-3.48c3.28,2,6.24,3.24,10.68,2.87a12.48,12.48,0,0,0,3.41-.76,8.41,8.41,0,0,1-1.82.38c-4.47.38-8.68-2-11.55-6.56Zm3-22a0,0,0,0,0,0,0,6.45,6.45,0,0,0-1.61,4.75c.41,4.9,4.89,6.24,9.21,7.53s8.16,2.44,8,6.76a5.36,5.36,0,0,1-2.26,3.89,7.92,7.92,0,0,0,1-.81,7,7,0,0,0,2.25-5.77c-.42-5-5-6.27-9.45-7.53-4.12-1.17-8-2.28-8-6.26A4.75,4.75,0,0,1,268.82,462.39Zm6.05-2.81c3.17,0,6,2.19,8.29,6.47l.73-3.67c-1.59-1-5.31-3.13-8.65-2.84Z"/><path class="cls-1" d="M326.18,478.11l-6.1,1.52-.06-.27c.71-1.23-.41-2.42-2.59-4.65l-8.61-9-3.25,5.58,2.19,8.78c.34,1.34.75,1.85,1.41,2.05l.07.27-4.76,1.18-.06-.27c.52-.5.65-1.14.31-2.48L299.31,459c-.34-1.38-.74-1.85-1.44-2l-.08-.31,4.75-1.18.08.3c-.49.49-.62,1.09-.28,2.47l3.14,12.58,5.94-10.28c2.61-4.56,3-6.5,1.28-7.28l-.08-.31,5-1.25.08.3c-1.67,1.48-3.32,4-5.83,8.3l-1.55,2.75,9.31,9.73c3,3.15,4.61,4.14,6.46,5Z"/><path class="cls-1" d="M304.29,483.85l-.17-.69.11-.1c.41-.39.58-.88.24-2.22l-5.42-21.74c-.34-1.35-.7-1.69-1.25-1.84l-.15,0-.19-.73,5.28-1.31.18.72-.11.1c-.38.39-.54.88-.21,2.22l3,11.93,5.61-9.71c1.87-3.27,2.54-5.09,2.22-6.07a1.37,1.37,0,0,0-.82-.83l-.12-.05-.17-.69,5.54-1.39.18.73-.12.11c-1.67,1.47-3.32,4-5.78,8.23l-1.45,2.57,9.17,9.58c2.87,3,4.41,4,6.39,5l.11,0,.16.65L319.89,480l-.16-.63,0-.1c.6-1-.4-2.14-2.54-4.32l-8.36-8.79-3,5.17L308,480c.34,1.34.72,1.7,1.23,1.86l.14,0,.17.68Zm-6-27c.64.3,1,.91,1.31,2.12L305,480.71a2.89,2.89,0,0,1-.14,2.44l3.88-1c-.59-.31-.95-.94-1.24-2.1l-5.42-21.73a2.84,2.84,0,0,1,.14-2.49Zm10.68,8.55,8.69,9.13c2,2.08,3.32,3.38,2.73,4.75l5.35-1.33a21.12,21.12,0,0,1-6.26-4.95l-9.29-9.7Zm4.1-12.23a1.77,1.77,0,0,1,.88,1,4.57,4.57,0,0,1-.49,3.05,26.66,26.66,0,0,1,3.82-5.13Z"/><path class="cls-1" d="M336.78,447.61,345,468.46c.5,1.28,1,1.74,1.69,1.84l.1.25-4.55,1.79-.11-.25c.43-.55.47-1.21,0-2.49l-8.18-20.85c-.51-1.28-1-1.74-1.66-1.85l-.12-.29,4.56-1.79.11.29C336.31,445.67,336.27,446.33,336.78,447.61Z"/><path class="cls-1" d="M342.05,472.69l-.25-.65.09-.12c.33-.42.43-.94-.08-2.22l-8.18-20.85c-.51-1.28-.93-1.6-1.46-1.68l-.15,0-.27-.68,5.06-2,.27.69-.1.12c-.35.44-.46.94,0,2.23l8.19,20.85c.5,1.29.94,1.59,1.48,1.67l.15,0,.26.66Zm-9.48-26c.66.23,1.11.8,1.56,1.94l8.18,20.85a2.91,2.91,0,0,1,.21,2.43l3.72-1.46c-.64-.23-1.09-.8-1.52-1.91l-8.19-20.85a2.82,2.82,0,0,1-.16-2.49Z"/><path class="cls-1" d="M371.69,427.09s.12.21.15.28a5.5,5.5,0,0,0,0,5.07l11.2,20-.52.29-28.17-11.79,9.45,16.85a5.56,5.56,0,0,0,4.39,2.66l.13.24-4.65,2.61-.14-.24a5.53,5.53,0,0,0,0-5.13l-9.62-17.17-3.79-1.59,3.48-2,26.7,11-8.77-15.65a5.52,5.52,0,0,0-4.33-2.64l-.16-.28Z"/><path class="cls-1" d="M363.57,463.65l-.35-.62.09-.13a5.31,5.31,0,0,0,0-4.85L353.75,441l-4.22-1.77,4.08-2.29.12,0,26,10.74-8.38-15a5.39,5.39,0,0,0-4-2.51h-.25l-.36-.65,5.08-2.85.37.65-.09.14a5.31,5.31,0,0,0,0,4.79l11.33,20.23-.86.48-.12,0L355,441.48,364,457.65a5.38,5.38,0,0,0,4,2.52h.28l.35.62Zm.63-4.87a6,6,0,0,1-.22,4l3.76-2.1A6.1,6.1,0,0,1,364.2,458.78Zm-10.07-18.24,28.37,11.88.17-.09-2.06-3.68-.38-.16-26.58-11-2.89,1.62Zm13.46-10.84a6.07,6.07,0,0,1,3.63,2,6,6,0,0,1,.21-4.13Z"/><path class="cls-1" d="M416.25,417.64c1.18,4.77.57,10-4.82,14.44-6,5-15.23,4.4-20.21-1.63s-3.57-15.4,2.46-20.39c3.29-2.72,6-3.5,10-3.94l2,4.23-.21.17c-5.14-1.69-10.93-1.31-14.21,2.84-4.27,5.43-1.07,13.14,5,17.17s12.78,3.17,17.46-2.08c2.41-2.66,3.27-6.4,2.3-10.72Z"/><path class="cls-1" d="M402,435.7c-.37,0-.74,0-1.1-.05a13.78,13.78,0,0,1-12.88-15.82,15.67,15.67,0,0,1,5.46-10c3.39-2.81,6.17-3.58,10.11-4l.19,0,2.13,4.59-.49.41-.14-.05c-4.51-1.49-10.53-1.54-13.92,2.75a8.91,8.91,0,0,0-1.77,7.09,15.05,15.05,0,0,0,6.73,9.69c5.95,3.91,12.5,3.13,17.1-2,2.41-2.65,3.19-6.28,2.25-10.49l-.06-.24.8-.24.07.27c1.45,5.88-.2,10.83-4.91,14.72A15.11,15.11,0,0,1,402,435.7Zm-13-18a14.54,14.54,0,0,0-.45,2.18,13.32,13.32,0,0,0,2.84,10.38,13.53,13.53,0,0,0,9.54,4.84,14.52,14.52,0,0,0,10.29-3.25,13.72,13.72,0,0,0,4.83-7.19,10.33,10.33,0,0,1-2.23,3.95c-4.8,5.38-11.62,6.19-17.8,2.12a15.51,15.51,0,0,1-7-10A10.37,10.37,0,0,1,389,417.72Zm14.44-11.31a16.21,16.21,0,0,0-9.63,3.86,13.73,13.73,0,0,0-1.72,1.69c3.58-3.18,8.93-3.08,13.1-1.77Z"/><path class="cls-1" d="M448.16,394.17l-4,4.62-.21-.18c-.11-1.45-1.37-2.11-4.27-3.15l-5.07-1.8-6.38,7.43,1.58,2.77c1.91,3.3,3.25,4.71,5.67,4.61l.22.18-3,3.53-.21-.18c-.24-2.44-.88-4.49-2.84-7.9l-8.79-15.35-3.43-1.23,2-2.36,20.24,7.22A23.88,23.88,0,0,0,448,394Zm-13.83-.62-13-4.64,6.82,11.89Z"/><path class="cls-1" d="M432.73,412.57l-.5-.43V412c-.22-2.24-.75-4.24-2.81-7.8L420.67,389l-3.7-1.32,2.41-2.81.17.06,20.25,7.23a23.37,23.37,0,0,0,8.15,1.59h.1l.49.42-4.31,5-.5-.43v-.11c-.1-1.29-1.29-1.91-4.1-2.92L434.73,394l-6.13,7.15,1.49,2.59c1.73,3,3,4.48,5.2,4.48h.33l.5.43Zm-1.56-6.18a15.63,15.63,0,0,1,1.56,5.34l2.57-3h0A4.9,4.9,0,0,1,431.17,406.39Zm-9.28-17,6.26,10.92,5.72-6.66Zm12.9,4,5,1.78c2.88,1,4.19,1.72,4.43,3.13l3.5-4.08a24.46,24.46,0,0,1-8.11-1.62l-20.07-7.17-1.66,1.93,16.9,6Z"/><path class="cls-1" d="M469.17,361.65l.23.14L466.23,367l-.23-.14c-.34-1.41-2-1.44-5.12-1.55l-8.51-.24c-.27.53-.55,1.05-.85,1.56l-1.92,3.14,8.67,5.28c1.18.72,1.83.8,2.44.48l.24.14-2.53,4.15-.24-.15c0-.69-.36-1.23-1.54-1.95L437.52,366c-1.21-.74-1.83-.79-2.44-.47l-.27-.16,4-6.55c3.19-5.22,8-8.75,12.45-6.06,3.17,1.94,3.54,5.64,2.26,9.49l7.18.21C465.38,362.62,467.18,362.24,469.17,361.65Zm-19.55-6.19c-2.63-1.61-6.64-2.85-10.55,3.56l-1.91,3.14,12.17,7.42,1.92-3.13C455.13,360.07,452.22,357,449.62,355.46Z"/><path class="cls-1" d="M458.51,380.17l-.6-.37v-.15c0-.53-.23-1-1.41-1.72l-19.12-11.67c-1.18-.72-1.69-.71-2.18-.46l-.13.07-.63-.38,4.13-6.78c2.87-4.69,7.94-9.12,12.82-6.15,2.9,1.78,3.8,5.21,2.49,9.46l6.82.2c4.76.14,6.55-.28,8.39-.83l.11,0,.57.35-3.45,5.66-.56-.35,0-.11c-.28-1.14-1.57-1.23-4.71-1.34h-.16l-8.33-.23c-.25.47-.51,1-.8,1.42L450,369.66l8.44,5.14c1.18.72,1.7.72,2.18.47l.13-.07.6.36ZM435.79,365.1a3.75,3.75,0,0,1,1.87.7l19.12,11.67c1,.62,1.51,1.15,1.64,1.81l2.07-3.39a2.91,2.91,0,0,1-2.36-.63L437,362.36l-1.73,2.84A1.71,1.71,0,0,1,435.79,365.1Zm1.74-3,11.71,7.14,1.78-2.9c2.89-4.75,2.39-8.22-1.54-10.62h0c-2.52-1.54-6.32-2.86-10.18,3.47Zm14.91,2.71,8.6.25c3,.1,4.65.15,5.15,1.51L469,362c-1.8.52-3.66.9-8.29.77l-7.47-.22A11.25,11.25,0,0,1,452.44,364.78Zm-6.81-10.88a8,8,0,0,1,4.13,1.33h0c2.81,1.71,4,4,3.54,6.82,1.32-4.08.52-7.37-2.2-9-3.22-2-6.51-.48-9.18,2.22A6,6,0,0,1,445.63,353.9Z"/><path class="cls-1" d="M479.23,328.74l4.08,2.65-6.19,14.79-.25-.11c-.1-.68-.54-1.16-1.82-1.7l-20.66-8.63c-1.27-.54-1.92-.51-2.48-.1l-.29-.12,5.7-13.63,4.36.93.07.24a10.86,10.86,0,0,0-7.24,6.35L453.45,332l10.75,4.49,3-9.51,1.86.77-4.6,8.86,13.92,5.82,1.23-2.95A12,12,0,0,0,479,328.9Z"/><path class="cls-1" d="M477.27,346.54l-.65-.27,0-.16c-.08-.52-.38-1-1.65-1.49L454.29,336c-1.27-.54-1.79-.45-2.22-.13L452,336l-.68-.29.1-.25,5.78-13.83,4.74,1,.19.64-.24.08a10.64,10.64,0,0,0-7.08,6.2l-1,2.31L464,336.09l3-9.51,2.4,1-4.61,8.86,13.4,5.6,1.13-2.7a11.65,11.65,0,0,0-.63-10.31l-.12-.21.59-.4,4.41,2.86-.08.21Zm-24.43-11.48a4.56,4.56,0,0,1,1.66.43l20.66,8.63c1.1.46,1.66.92,1.89,1.55l1.26-3h0l-25-10.45L452,335.25A1.83,1.83,0,0,1,452.84,335.06Zm26.64-5.84a12.31,12.31,0,0,1,1.16,7.86l2.33-5.59ZM467.4,327.3l-2.55,8,3.87-7.44Zm-9.92-5.1-2.11,5a11.23,11.23,0,0,1,5.79-4.25Z"/></svg>