<svg id="Layer_1" data-name="Layer 1" xmlns="http://www.w3.org/2000/svg" viewBox="0 0 503.47 391.65"><defs><style>.cls-1{fill:#f2f2f2;}</style></defs><path class="cls-1" d="M312.17,57.73H241.12v3.82h71.05c95.41,0,153.62,75.36,153.62,163.14,0,88.24-58.21,163.61-153.62,163.61H241.12V201.16H193V205c7.13,4.31,10.48,11.44,10.48,28.16v127c0,16.69-3.35,23.86-10.48,28.14v3.35H312.17c110.66,0,191.3-72.52,191.3-167C503.47,130.71,422.83,57.73,312.17,57.73Z"/><path class="cls-1" d="M85.12,260.69a67.23,67.23,0,0,0,9.09,0Z"/><path class="cls-1" d="M241.11,260.69H94.19a67.08,67.08,0,0,1-9.08,0c-35.24-2.08-55.58-30-55.58-73.38V79c0-10.42,2-14.48,6.35-17.09V59.65H0v2.29C4.62,64.55,6.64,68.61,6.64,79V187.31c0,43.95,25.15,67.95,58.52,74.71A103.63,103.63,0,0,0,86,264h155.1Z"/><path class="cls-1" d="M203.57,59.65a59.65,59.65,0,0,0-59.64,59.65A59.64,59.64,0,0,0,84.3,59.65,59.64,59.64,0,0,0,143.93,0,59.65,59.65,0,0,0,203.57,59.65Z"/><path class="cls-1" d="M409.47,224.69A61.27,61.27,0,0,0,348.2,286,61.25,61.25,0,0,0,287,224.69a61.25,61.25,0,0,0,61.24-61.26A61.27,61.27,0,0,0,409.47,224.69Z"/></svg>