<svg id="Layer_1" data-name="Layer 1" xmlns="http://www.w3.org/2000/svg" viewBox="0 0 1393.51 423.64"><defs><style>.cls-1{fill:#675d8b;}</style></defs><path class="cls-1" d="M204.49,293h-52.4v-2.38c8.85-8.85,6.13-20.76-3.4-45.6L132,201.8H47.64l-9.19,25.86c-10.89,31-12.59,47.64,1.7,63V293H0v-2.38c14.63-15.31,24.5-31,35.73-63l51-143.59L75.54,54.81h26.88l66.35,172.85c13.95,34,22.79,47.64,35.72,63ZM131,199.08,88.13,87.82,48.66,199.08Z"/><path class="cls-1" d="M802.15,293h-52.4v-2.38c8.85-8.85,6.12-20.76-3.4-45.6L729.67,201.8H645.29l-9.19,25.86c-10.88,31-12.59,47.64,1.7,63V293H597.65v-2.38c14.64-15.31,24.5-31,35.73-63l51-143.59L673.19,54.81h26.88l66.35,172.85c14,34,22.8,47.64,35.73,63Zm-73.5-93.91L685.78,87.82,646.31,199.08Z"/><path class="cls-1" d="M1013.1,229c0,48-56.48,64-100.37,64H819.16v-2.38c5.1-3.06,7.48-8.17,7.48-20.07V77.61c0-11.91-2.38-17-7.48-20.08V54.81H898.1c43.89,0,100.37,8.85,100.37,56.83,0,36.4-33.34,50-68.73,54.44C969.89,169.82,1013.1,187.51,1013.1,229Zm-159.58-64H898.1c55.8,0,73.49-23.48,73.49-53.42,0-30.29-17.69-54.11-73.49-54.11H853.52Zm133.05,64c0-29.94-18-61.24-73.84-61.24H853.52V290.61h59.21C968.53,290.61,986.57,259.3,986.57,229Z"/><path class="cls-1" d="M1227.12,54.81v2.72c-10.89,5.79-14.29,23.48-14.29,38.11V213c0,47.3-33.68,82-81.66,82-50.7,0-93.23-28.24-93.23-90.17V77.61c0-12.25-2.38-17-7.83-20.08V54.81h42.2v2.72c-5.11,3.07-7.49,7.83-7.49,20.08V204.86c0,56.15,28.92,90.17,78.26,86.09,41.85-3.4,67.37-39.81,67.37-77.92V99.39c0-18.72-8.85-39.47-25.52-41.86V54.81Z"/><path class="cls-1" d="M1393.51,251.82,1386,293H1244.13v-2.38c5.45-3.06,7.83-8.17,7.83-20.07V77.61c0-12.25-2.38-17-7.83-20.08V54.81h42.19v2.72c-5.1,3.07-7.48,7.83-7.48,20.08v213h31a102.42,102.42,0,0,0,81.66-40.15Z"/><path class="cls-1" d="M444.18,48.71H393.5v2.72h50.68c68.06,0,109.58,53.76,109.58,116.37,0,62.95-41.52,116.71-109.58,116.71H393.5V151H359.14v2.72c5.09,3.08,7.48,8.17,7.48,20.09v90.61c0,11.9-2.39,17-7.48,20.07v2.39h85c78.94,0,136.46-51.73,136.46-119.1C580.64,100.77,523.12,48.71,444.18,48.71Z"/><path class="cls-1" d="M282.22,193.49a50,50,0,0,0,6.48,0Z"/><path class="cls-1" d="M393.5,193.48H288.69a46.7,46.7,0,0,1-6.48,0c-25.13-1.48-39.64-21.37-39.64-52.34V63.9c0-7.43,1.43-10.33,4.53-12.19V50.08H221.5v1.63c3.3,1.86,4.74,4.76,4.74,12.19v77.24c0,31.35,17.94,48.47,41.75,53.3a74.32,74.32,0,0,0,14.86,1.43H393.5Z"/><path class="cls-1" d="M374.24,50.08a50.07,50.07,0,0,0-50.07,50.07,50.07,50.07,0,0,0-50.06-50.07A50.07,50.07,0,0,0,324.17,0,50.08,50.08,0,0,0,374.24,50.08Z"/><path class="cls-1" d="M520,167.8a50.08,50.08,0,0,0-50.08,50.08,50.07,50.07,0,0,0-50.06-50.08,50.06,50.06,0,0,0,50.06-50.07A50.08,50.08,0,0,0,520,167.8Z"/><path class="cls-1" d="M433.4,364.25l-2.87,9.93h-.66c-5.45-12.79-12.42-17.66-20-17.66-9.45,0-14.89,5.35-15.46,11.07-1.82,19.1,39.14,12.8,39.14,36.67,0,11.36-10.22,19.38-23.77,19.38-11.36,0-18.43-3.82-25.87-9.45l2.86-10.89h.67c4.87,9.74,13.75,18.43,26.25,18.43,8.12,0,14.89-5.25,15.66-11.27,2.48-20.33-38.57-13.84-38.57-37.81,0-7.73,6.2-17.37,21.58-17.37C419.75,355.28,427.77,359.86,433.4,364.25Z"/><path class="cls-1" d="M523,423.06H507.77v-.66c2.39-2.49.48-5.92-3.34-12.42l-14.9-26.25L478.65,394.9v21.86c0,3.34.67,4.78,2.1,5.64v.66H468.91v-.66c1.53-.86,2.2-2.3,2.2-5.64V362.63c0-3.44-.67-4.77-2.2-5.63v-.77h11.84V357c-1.43.86-2.1,2.19-2.1,5.63V394l20-20.63c8.79-9.16,10.89-13.46,7.26-16.32v-.77h12.51V357c-4.78,2.48-10.12,7.44-18.53,16l-5.25,5.53,16.14,28.26C516,416,519.13,419.24,523,422.4Z"/><path class="cls-1" d="M566,362.63v54.13c0,3.34.66,4.78,2.19,5.64v.66H556.36v-.66c1.43-.86,2.1-2.3,2.1-5.64V362.63c0-3.34-.67-4.77-2.1-5.63v-.77H568.2V357C566.67,357.86,566,359.29,566,362.63Z"/><path class="cls-1" d="M664.15,356.23V357c-3.15,1.62-6,6.58-6,10.69v55.37H656.7l-45.44-58.14v46.69c0,4.1,2.86,9.16,6.11,10.79v.66H604.48v-.66c3.25-1.63,6.11-6.69,6.11-10.79V364.06l-6.11-7.83h9.64L657.37,411V367.69c0-4.11-2.86-9.07-6-10.69v-.77Z"/><path class="cls-1" d="M763.91,404.16c-5.15,10.69-14.32,19.48-31.21,19.48-18.81,0-35.14-15.28-35.14-34.18s17.09-34.18,36-34.18c10.32,0,16.52,2.67,24.64,8l-2.87,10.88h-.67c-7-11.07-18.33-19.28-30.83-16.61-16.33,3.53-22.25,22.82-17.09,39.72s18.9,25.58,35.7,23c8.6-1.25,16-6.88,20.82-16.43Z"/><path class="cls-1" d="M850.89,423.06h-14.7v-.66c2.48-2.49,1.71-5.83-1-12.8l-4.68-12.12H806.88l-2.58,7.25c-3.06,8.69-3.53,13.37.48,17.67v.66H793.51v-.66c4.11-4.3,6.87-8.69,10-17.67l14.32-40.29-3.15-8.21h7.54l18.61,48.5c3.92,9.55,6.4,13.37,10,17.67Zm-20.62-26.35-12-31.22-11.08,31.22Z"/><path class="cls-1" d="M935.28,422.4v.66h-14.7v-.66c2.48-2.49.48-5.92-3.25-12.51L907.12,392c-1.43.09-2.86.19-4.3.19h-8.88v24.53c0,3.34.67,4.78,2.11,5.64v.66H884.3v-.66c1.43-.86,2.1-2.3,2.1-5.64V362.63c0-3.44-.67-4.77-2.1-5.63v-.77h18.52c14.8,0,28.17,5.54,28.17,18,0,9-7.16,14.41-16.71,16.61L922.87,406C928.5,415.81,931.56,419.05,935.28,422.4Zm-11.84-48.12c0-7.45-2.48-17.28-20.62-17.28h-8.88v34.46h8.88C920.87,391.46,923.44,381.63,923.44,374.28Z"/><path class="cls-1" d="M1009.56,411.51l-2.1,11.55H968.7v-.66c1.43-.86,2.1-2.3,2.1-5.64V362.63c0-3.34-.67-4.77-2.1-5.63v-.77h35.71l2,10.6-.48.38c-4.39-5-10.31-10.21-20.91-10.21h-6.68v28.16l24.06-2.1v4.87l-24.06-2V422.4h7.73A28.9,28.9,0,0,0,1009,411.13Z"/></svg>