<svg id="Layer_1" data-name="Layer 1" xmlns="http://www.w3.org/2000/svg" viewBox="0 0 1080 629.68"><defs><style>.cls-1{fill:#f0bfd2;}</style></defs><path class="cls-1" d="M644.72,160.17a104.33,104.33,0,0,0-17.26-41.39L541.13.57,456.32,116.74A105.33,105.33,0,0,0,466.13,253a106.59,106.59,0,0,0,8.67,7.86,104,104,0,0,0,65.1,23.51c.44,0,.81,0,1.26,0s.79,0,1.19,0a105.52,105.52,0,0,0,65.78-24,108.57,108.57,0,0,0,8.63-8,105.29,105.29,0,0,0,28-92.23ZM541.53,15.41,595.18,209.5l-.46.31a43.46,43.46,0,0,1-11.3,5.45,42.45,42.45,0,0,1-11.2,1.94c-.58,0-1.19.05-1.79.05a43.26,43.26,0,0,1-21.29-5.57l-.88-.49.71-.73a51.82,51.82,0,0,0,6.4-7.89,52.86,52.86,0,0,0,4.78-9.1A52.26,52.26,0,0,0,549,137.2a52.78,52.78,0,0,0-7.91-6.62A52.35,52.35,0,0,0,522,193.52a53.05,53.05,0,0,0,4.79,9.1,52.26,52.26,0,0,0,6.37,7.84l.71.73-.88.49a43.21,43.21,0,0,1-21.27,5.57c-.55,0-1.13,0-1.69-.05a42.92,42.92,0,0,1-21.82-6.87l-.47-.31Zm4.36,185.21a41.66,41.66,0,0,1-4.28,4.69l-.53.5-.54-.5a42.84,42.84,0,0,1-4.28-4.68,43.4,43.4,0,0,1,4.28-58.27l.54-.51.53.51a43.41,43.41,0,0,1,4.28,58.26ZM469.2,243.4l-.94-1.09a96.4,96.4,0,0,1-7.78-116,90.57,90.57,0,0,1,5.55-7.6l60.61-83Zm136.86,7A96.14,96.14,0,0,1,578.8,268a95.14,95.14,0,0,1-17.44,5.49,96.38,96.38,0,0,1-18.26,2.09c-.64,0-1.3.05-2,.05s-1.33,0-2-.05a95.84,95.84,0,0,1-62.3-24.5l-.35-.31,8.77-31.8.87.5a52.05,52.05,0,0,0,19.23,6.29,52.74,52.74,0,0,0,35.27-8.34l.43-.29.42.29a52.23,52.23,0,0,0,35.38,8.33,54,54,0,0,0,10-2.27,52,52,0,0,0,9.9-4.48l.87-.51,8.76,31.69Zm8.58-8.85-1,1.1L557,37.47l59,80.79a90.51,90.51,0,0,1,6.14,8.4,96.42,96.42,0,0,1-7.44,114.94Z"/><path class="cls-1" d="M683.36,142.22A142.22,142.22,0,1,1,541.14,0,142.22,142.22,0,0,1,683.36,142.22ZM541.14,8.9A133.32,133.32,0,1,0,674.46,142.22,133.32,133.32,0,0,0,541.14,8.9Z"/><path class="cls-1" d="M101.76,484.1a3.63,3.63,0,0,1-1.3,3,6.11,6.11,0,0,1-3.88,1H64.3a5.74,5.74,0,0,1-3.77-1.09,3.63,3.63,0,0,1-1.3-2.95,3.27,3.27,0,0,1,1.09-2.53,10.4,10.4,0,0,1,3.16-1.81l4.45-1.14a5.93,5.93,0,0,0,3.87-2.48,32,32,0,0,0,2.75-6.63L112.62,358.3c.76-2.21.89-3.71.41-4.5s-1.9-1.47-4.24-2a15.29,15.29,0,0,1-4.55-1.71,3.06,3.06,0,0,1-1.55-2.74,3.67,3.67,0,0,1,1.29-2.95,5.76,5.76,0,0,1,3.78-1.08h37.45a5.74,5.74,0,0,1,3.77,1.08,3.64,3.64,0,0,1,1.3,2.95,3.08,3.08,0,0,1-1.55,2.74,17.28,17.28,0,0,1-4.66,1.81c-1.73.42-2.79,1-3.21,1.66s-.34,1.93.21,3.72l39.21,113.39a13.59,13.59,0,0,0,3.42,5.8,14.25,14.25,0,0,0,6,2.89,12.7,12.7,0,0,1,4.19,2A3.5,3.5,0,0,1,195,484.1a3.62,3.62,0,0,1-1.29,3,5.93,5.93,0,0,1-3.78,1H153.07a5.92,5.92,0,0,1-3.77-1,4,4,0,0,1-.16-5.74,7.08,7.08,0,0,1,3.31-1.6l9.21-1.14c1.72-.35,2.65-1.14,2.79-2.38s-.31-3.24-1.34-6l-40.77-119,2.59-.41L84.48,468.48a36.61,36.61,0,0,0-1.19,5.17,3.72,3.72,0,0,0,.83,3.16A7.42,7.42,0,0,0,88,478.62l9.2,1.24a7.15,7.15,0,0,1,3.37,1.45A3.52,3.52,0,0,1,101.76,484.1ZM91.41,430.3h63.73l1,9H90Z"/><path class="cls-1" d="M256.94,378.47a44.93,44.93,0,0,0,4.35-5.43,10.34,10.34,0,0,0,1.75-5.85,11.61,11.61,0,0,0-.72-4.29,21.75,21.75,0,0,0-1.76-3.47,23,23,0,0,1-1.81-3.57,11.84,11.84,0,0,1-.78-4.5,10.56,10.56,0,0,1,5.8-9.67,14.28,14.28,0,0,1,6.83-1.5,10.81,10.81,0,0,1,8.07,3.42q3.3,3.4,3.31,9.62a26.08,26.08,0,0,1-1.3,8.27,30.91,30.91,0,0,1-4.19,8.07,109.83,109.83,0,0,1-7.34,9.21L210.9,445.72l-1.14-3.52H300.7a5.62,5.62,0,0,1,3.52,1,3.77,3.77,0,0,1,1.35,3.2q0,4.46-5,4.45H208.73a6.48,6.48,0,0,1-4.66-1.5,5.3,5.3,0,0,1-1.55-4,7.67,7.67,0,0,1,.83-3.36,17.28,17.28,0,0,1,3.1-4.09Zm9.93,31.66a9.83,9.83,0,0,1,.83-4.35,14.66,14.66,0,0,1,1.86-2.89l6-5.9a7.34,7.34,0,0,1,2.12-1.71,4.94,4.94,0,0,1,2.13-.46,2.4,2.4,0,0,1,2,.88,4.28,4.28,0,0,1,.72,2.74l.11,70.87a8.67,8.67,0,0,0,2.07,6.15,9.84,9.84,0,0,0,5.79,2.85l8,1.34a8.07,8.07,0,0,1,3.62,1.61,3.58,3.58,0,0,1,1.24,2.84,3.68,3.68,0,0,1-1.24,3,5.72,5.72,0,0,1-3.73,1H250.84q-5.18,0-5.18-4c0-2.27,1.62-3.76,4.87-4.45l8.48-1.34a9.42,9.42,0,0,0,5.79-2.74,8.85,8.85,0,0,0,2.07-6.26Z"/><path class="cls-1" d="M326.25,484.1c0-2.07,1.52-3.58,4.56-4.55l5-1.14a11.14,11.14,0,0,0,5.69-3,8.44,8.44,0,0,0,2.07-6.15V362.12a8.63,8.63,0,0,0-2.07-6.2,10.39,10.39,0,0,0-5.69-2.9l-5-1.14q-4.56-1.44-4.56-4.55a3.63,3.63,0,0,1,1.3-3,5.92,5.92,0,0,1,3.77-1h46a104.78,104.78,0,0,1,35.28,5.63,80.12,80.12,0,0,1,27.16,15.88,71.25,71.25,0,0,1,17.48,24,72.77,72.77,0,0,1,6.16,30.1,70.77,70.77,0,0,1-8.79,35.23q-8.81,15.68-26.13,24.83t-42.78,9.16H331.32a5.92,5.92,0,0,1-3.77-1A3.63,3.63,0,0,1,326.25,484.1Zm59-5.07q19.65,0,33.31-7.55a50.38,50.38,0,0,0,20.79-21.26q7.14-13.71,7.14-31.92a67.74,67.74,0,0,0-5.07-26.53A60.81,60.81,0,0,0,427,370.87a64.88,64.88,0,0,0-22.4-13.66,83.39,83.39,0,0,0-29.07-4.81H359.67v116q0,5.47,3.21,8.07t9.93,2.58Z"/><path class="cls-1" d="M518,484.1a3.62,3.62,0,0,1-1.29,3,6.13,6.13,0,0,1-3.88,1H480.51a5.79,5.79,0,0,1-3.78-1.09,3.65,3.65,0,0,1-1.29-2.95,3.24,3.24,0,0,1,1.09-2.53,10.33,10.33,0,0,1,3.15-1.81l4.45-1.14a6,6,0,0,0,3.88-2.48,32.11,32.11,0,0,0,2.74-6.63L528.83,358.3q1.13-3.32.41-4.5c-.48-.8-1.9-1.47-4.24-2a15.29,15.29,0,0,1-4.55-1.71,3.07,3.07,0,0,1-1.56-2.74,3.64,3.64,0,0,1,1.3-2.95A5.74,5.74,0,0,1,524,343.3h37.46a5.74,5.74,0,0,1,3.77,1.08,3.67,3.67,0,0,1,1.3,2.95,3.07,3.07,0,0,1-1.56,2.74,17.06,17.06,0,0,1-4.65,1.81c-1.73.42-2.8,1-3.21,1.66s-.35,1.93.21,3.72l39.21,113.39a13.58,13.58,0,0,0,3.41,5.8,14.36,14.36,0,0,0,6,2.89,12.7,12.7,0,0,1,4.19,2,3.5,3.5,0,0,1,1.09,2.74,3.62,3.62,0,0,1-1.29,3,6,6,0,0,1-3.78,1H569.28a5.93,5.93,0,0,1-3.78-1,4,4,0,0,1-.15-5.74,7,7,0,0,1,3.31-1.6l9.21-1.14c1.72-.35,2.65-1.14,2.79-2.38s-.31-3.24-1.35-6l-40.76-119,2.59-.41L500.69,468.48a36.61,36.61,0,0,0-1.19,5.17,3.72,3.72,0,0,0,.82,3.16,7.5,7.5,0,0,0,3.88,1.81l9.21,1.24a7.06,7.06,0,0,1,3.36,1.45A3.49,3.49,0,0,1,518,484.1Zm-10.34-53.8h63.73l1,9H506.17Z"/><path class="cls-1" d="M742.57,453.17q0,15-13,25t-38.33,10H631.56a6.15,6.15,0,0,1-3.83-1,3.55,3.55,0,0,1-1.35-3c0-2.07,1.52-3.58,4.56-4.55l5-1.14a11.23,11.23,0,0,0,5.8-3c1.38-1.41,2.06-3.46,2.06-6.15V362.12a8.63,8.63,0,0,0-2.06-6.2,10.49,10.49,0,0,0-5.8-2.9l-5-1.14q-4.56-1.44-4.56-4.55a3.55,3.55,0,0,1,1.35-3,6.15,6.15,0,0,1,3.83-1H677.8q18.21,0,30.88,5.27t19.15,14.64a37.09,37.09,0,0,1,6.46,21.57A33.65,33.65,0,0,1,729,403.4q-5.33,8.28-16.55,13T683.6,421.1l8.07-3.11q16,0,27.46,4.5T736.57,435A29.46,29.46,0,0,1,742.57,453.17ZM683.8,424.1H654.11v-8h28.45q11.28,0,19.19-3.62A27,27,0,0,0,713.91,402a31.09,31.09,0,0,0,4.24-16.56,32.63,32.63,0,0,0-4.6-17.43q-4.6-7.5-14-11.79T676,351.88H659.91v116.7q0,5.49,3.25,8.23t10.09,2.74h15.11q12.61,0,20.9-3.41t12.36-9.42a24.06,24.06,0,0,0,4.08-13.86q0-12.63-10.39-20.69T683.8,424.1Z"/><path class="cls-1" d="M868.68,428.85l-4-67.76q-.1-3.82-2.07-5.59a11.87,11.87,0,0,0-5.79-2.48l-4.87-1a10.63,10.63,0,0,1-3.83-1.66,3.57,3.57,0,0,1-1.34-3,3.67,3.67,0,0,1,1.29-2.95,5.59,5.59,0,0,1,3.68-1.08h36.62a5.55,5.55,0,0,1,3.73,1.08,3.75,3.75,0,0,1,1.24,2.95,3.55,3.55,0,0,1-1.35,3,10.57,10.57,0,0,1-3.72,1.66l-5,1a12,12,0,0,0-6.36,2.84,7,7,0,0,0-1.81,5.64l3.41,67.35c.21,3.39.4,6.68.57,9.89s.33,6.56.47,10.08q.62,12.63-5.23,22.14t-17.74,15q-11.9,5.49-29.38,5.49-18.11,0-30.58-5.18t-18.77-14.74q-6.32-9.57-5.9-22.6.1-3.31.36-8.44t.57-10.29q.32-5.18.52-8.79l3.1-59.29c.14-2.69-.48-4.75-1.86-6.2a10.77,10.77,0,0,0-6.1-2.9l-5-1q-5.18-1.14-5.17-4.66a3.59,3.59,0,0,1,1.34-2.95,5.81,5.81,0,0,1,3.73-1.08h42a5.55,5.55,0,0,1,3.73,1.08,3.75,3.75,0,0,1,1.24,2.95,3.55,3.55,0,0,1-1.35,3,10.55,10.55,0,0,1-3.83,1.66l-4.86,1a10.45,10.45,0,0,0-5.84,2.84,9.12,9.12,0,0,0-2,5.75l-3,59.28q-.42,7.86-.62,14.12t-.52,11.74q-.61,16.77,10.81,25.51t31.4,8.74q12.72,0,21.62-3.93a28.22,28.22,0,0,0,13.35-11.44q4.44-7.5,3.93-18.15c-.21-4.42-.36-8-.46-10.76S868.82,431.34,868.68,428.85Z"/><path class="cls-1" d="M960.24,351.88l-5,1.14a10.49,10.49,0,0,0-5.8,2.9,8.63,8.63,0,0,0-2.07,6.2v107.5q0,4.75,2.85,7.14c1.9,1.58,5,2.38,9.16,2.38h24.51a28.77,28.77,0,0,0,9.94-1.56,18.32,18.32,0,0,0,7.6-5.43,37.72,37.72,0,0,0,6-10.4l5-12.31a6.6,6.6,0,0,1,2.33-2.95,4.1,4.1,0,0,1,2.95-.46,3.31,3.31,0,0,1,2.53,1.91,6.36,6.36,0,0,1,.26,4.09l-8,34.66a9.2,9.2,0,0,1-2,4.14,5.16,5.16,0,0,1-3.88,1.34,7.05,7.05,0,0,1-3.56-1l-3.47-2a8,8,0,0,0-4.14-1H919.07a5.93,5.93,0,0,1-3.78-1,3.62,3.62,0,0,1-1.29-3c0-2.07,1.48-3.58,4.45-4.55l5-1.14a11.27,11.27,0,0,0,5.8-3,8.48,8.48,0,0,0,2.06-6.15V362.12a8.67,8.67,0,0,0-2.06-6.2,10.53,10.53,0,0,0-5.8-2.9l-5-1.14q-4.46-1.44-4.45-4.55a3.62,3.62,0,0,1,1.29-3,5.93,5.93,0,0,1,3.78-1h40.55a5.9,5.9,0,0,1,3.83,1,3.68,3.68,0,0,1,1.24,3Q964.69,350.43,960.24,351.88Z"/><path class="cls-1" d="M304.42,588.09q0,7.5-6.49,12.49t-19.17,5H248.91a3.1,3.1,0,0,1-1.91-.51,1.78,1.78,0,0,1-.67-1.5c0-1,.75-1.8,2.27-2.28l2.48-.57a5.7,5.7,0,0,0,2.9-1.47,4.25,4.25,0,0,0,1-3.08v-53.6a4.32,4.32,0,0,0-1-3.1,5.26,5.26,0,0,0-2.9-1.45l-2.48-.57c-1.52-.48-2.27-1.24-2.27-2.27a1.76,1.76,0,0,1,.67-1.5,3,3,0,0,1,1.91-.52H272a40.21,40.21,0,0,1,15.44,2.64,21.14,21.14,0,0,1,9.57,7.32,18.53,18.53,0,0,1,3.23,10.78,16.91,16.91,0,0,1-2.66,9.32,17.6,17.6,0,0,1-8.28,6.49q-5.61,2.35-14.41,2.35l4-1.55a37.5,37.5,0,0,1,13.73,2.25,19.57,19.57,0,0,1,8.72,6.23A14.75,14.75,0,0,1,304.42,588.09ZM275,573.55H260.19v-4h14.23a22.92,22.92,0,0,0,9.59-1.81,13.51,13.51,0,0,0,6.08-5.28,15.59,15.59,0,0,0,2.12-8.28,16.34,16.34,0,0,0-2.3-8.71,15.45,15.45,0,0,0-7-5.9,28.25,28.25,0,0,0-11.76-2.15h-8.07V595.8a5.06,5.06,0,0,0,1.63,4.11,7.72,7.72,0,0,0,5,1.37h7.55a27.54,27.54,0,0,0,10.45-1.71,13.31,13.31,0,0,0,6.18-4.71,12,12,0,0,0,2.05-6.93,12.55,12.55,0,0,0-5.2-10.34Q285.58,573.55,275,573.55Z"/><path class="cls-1" d="M355.58,574.84a5.13,5.13,0,0,1-1.55,4.07,6.62,6.62,0,0,1-4.5,1.37H316.06V576.6h28.76c2.11,0,3.16-.91,3.16-2.74a13.11,13.11,0,0,0-3.49-9.34,12.2,12.2,0,0,0-9.29-3.69,14.44,14.44,0,0,0-8.2,2.4,16,16,0,0,0-5.61,6.73,23.46,23.46,0,0,0-2,10.06q0,10,5.12,15.39a17.38,17.38,0,0,0,13.19,5.4,16.1,16.1,0,0,0,9.88-2.84,14.72,14.72,0,0,0,5.23-6.47,5.5,5.5,0,0,1,.8-1.06,1.12,1.12,0,0,1,1-.33,1.07,1.07,0,0,1,1,.49,2.31,2.31,0,0,1,.31,1.26,13.06,13.06,0,0,1-2.74,7.22,18.69,18.69,0,0,1-6.93,5.54A22.84,22.84,0,0,1,336,606.76a24.22,24.22,0,0,1-12.6-3.15,21.29,21.29,0,0,1-8.17-8.75,29.89,29.89,0,0,1,.13-25.83,23.24,23.24,0,0,1,8.35-9.14,22.92,22.92,0,0,1,12.44-3.36,21.26,21.26,0,0,1,10,2.3,17.35,17.35,0,0,1,6.9,6.44A18.12,18.12,0,0,1,355.58,574.84Z"/><path class="cls-1" d="M366.24,594.76q0-5.89,5.38-9.88t14.64-4a36.35,36.35,0,0,1,6.49.59,37.89,37.89,0,0,1,5.72,1.48l-.62,3.46c-1.63-.51-3.35-1-5.18-1.37a28.23,28.23,0,0,0-5.9-.59c-4,0-7.13.82-9.49,2.45a7.84,7.84,0,0,0-3.54,6.81,7.31,7.31,0,0,0,2.66,6.18,10.46,10.46,0,0,0,6.55,2,17.69,17.69,0,0,0,8.56-2.2,22.32,22.32,0,0,0,7.16-6.28l1.3,2.89a24.34,24.34,0,0,1-8.59,7.71,22.35,22.35,0,0,1-10.71,2.75,16.7,16.7,0,0,1-10.37-3.08Q366.23,600.67,366.24,594.76Zm31,5.59v-2.12l-.42-1.45V570.19c0-3.14-.92-5.54-2.76-7.22s-4.43-2.51-7.74-2.51c-3,0-5.33.59-6.88,1.76a5.16,5.16,0,0,0-2.33,4.19V570a3.45,3.45,0,0,1-1.21,2.82,4.93,4.93,0,0,1-3.24,1,3.86,3.86,0,0,1-2.89-1.11,3.91,3.91,0,0,1-1.09-2.87,10.17,10.17,0,0,1,2.38-6.39,17.29,17.29,0,0,1,6.8-5,26.15,26.15,0,0,1,10.53-1.94q7.81,0,11.67,3.83a13.44,13.44,0,0,1,3.85,10v28.71a2.67,2.67,0,0,0,.65,1.92,2.21,2.21,0,0,0,1.68.67,3.36,3.36,0,0,0,1.34-.23,2.8,2.8,0,0,0,.88-.6c.24-.24.48-.46.73-.67a1.2,1.2,0,0,1,.82-.31,1.38,1.38,0,0,1,1,.44,1.88,1.88,0,0,1,.41,1.32,4,4,0,0,1-.88,2.43,6.65,6.65,0,0,1-2.43,2,7.58,7.58,0,0,1-3.57.81,8.27,8.27,0,0,1-5.27-1.63A5.79,5.79,0,0,1,397.28,600.35Z"/><path class="cls-1" d="M425.11,592.33V567.19a3.24,3.24,0,0,0-.57-2.12,2.32,2.32,0,0,0-1.61-.78l-4-.1a2.64,2.64,0,0,1-1.37-.62,1.5,1.5,0,0,1-.49-1.14,1.75,1.75,0,0,1,.54-1.27,4.15,4.15,0,0,1,1.63-.9l6.67-2.12,2.18-.78a5.49,5.49,0,0,1,1.75-.36,2.36,2.36,0,0,1,1.79.67,2.66,2.66,0,0,1,.65,1.91v30.89c0,3.62.89,6.36,2.69,8.22a9.35,9.35,0,0,0,7.08,2.8,15.24,15.24,0,0,0,6.55-1.71A32.32,32.32,0,0,0,456,594.5l2.64-2.33,2.17,2.38-3,2.75a49.47,49.47,0,0,1-9.69,7.08,18.69,18.69,0,0,1-8.82,2.49,13.9,13.9,0,0,1-10.27-4A14.2,14.2,0,0,1,425.11,592.33Zm32.17,8.54v-4.45l-.2-.62V567.19a3.3,3.3,0,0,0-.55-2.12,2.19,2.19,0,0,0-1.57-.78l-4.09-.1a2.54,2.54,0,0,1-1.35-.62,1.55,1.55,0,0,1-.46-1.14,1.75,1.75,0,0,1,.54-1.27,4.13,4.13,0,0,1,1.58-.9l6.67-2.12c.8-.31,1.53-.58,2.2-.81a5.71,5.71,0,0,1,1.73-.33,2.32,2.32,0,0,1,1.81.67,2.7,2.7,0,0,1,.63,1.91v38.08A3.32,3.32,0,0,0,465,600a4.23,4.23,0,0,0,1.94,1.17l2.27.51a3.9,3.9,0,0,1,1.53.73,1.68,1.68,0,0,1,.54,1.34,1.65,1.65,0,0,1-.59,1.32,2.67,2.67,0,0,1-1.74.49h-7.14a4.81,4.81,0,0,1-3.41-1A5,5,0,0,1,457.28,600.87Z"/><path class="cls-1" d="M482.84,561.5l-3-.36a2.38,2.38,0,0,1-1.3-.78,1.91,1.91,0,0,1-.46-1.24,1.66,1.66,0,0,1,.57-1.29,2.19,2.19,0,0,1,1.55-.52h2.38a4.53,4.53,0,0,0,2.48-.6,3.69,3.69,0,0,0,1.4-2.2l1.81-6.26a3.75,3.75,0,0,1,1.19-1.62A2.53,2.53,0,0,1,491,546a2,2,0,0,1,1.48.6,2.35,2.35,0,0,1,.59,1.73v45.88a7,7,0,0,0,1.55,4.84,5.4,5.4,0,0,0,4.25,1.73,8,8,0,0,0,2.43-.33,7.71,7.71,0,0,0,1.75-.8c.49-.31.92-.57,1.3-.78a2.24,2.24,0,0,1,1.09-.31,1.42,1.42,0,0,1,1.13.57,1.76,1.76,0,0,1,.26,1.55,4.81,4.81,0,0,1-1.65,2.66,10.73,10.73,0,0,1-3.57,2.07,13.39,13.39,0,0,1-4.71.81A11.36,11.36,0,0,1,489,603.5q-3-2.73-3-8.27V565.48a4.42,4.42,0,0,0-.75-2.71A3.42,3.42,0,0,0,482.84,561.5Zm5.9,0v-4.24h15.77a3,3,0,0,1,1.76.41,1.57,1.57,0,0,1,.57,1.35,2.07,2.07,0,0,1-1,1.78,5.63,5.63,0,0,1-3.18.7Z"/><path class="cls-1" d="M541.29,601.69l-3.67,7.82-18.26-43.92a6.15,6.15,0,0,0-2.28-3.08,14.08,14.08,0,0,0-3.51-1.32,3.44,3.44,0,0,1-1.53-.83,1.66,1.66,0,0,1-.49-1.19,1.61,1.61,0,0,1,.64-1.4,2.86,2.86,0,0,1,1.69-.46h17.74a2.88,2.88,0,0,1,1.76.46,1.59,1.59,0,0,1,.62,1.35,1.65,1.65,0,0,1-.59,1.32,4.08,4.08,0,0,1-1.69.75l-2.27.51c-1.49.35-2.34.94-2.56,1.76s0,2.16.8,4ZM534,614l3.77-9,1.3-2.12,14.33-36a5.12,5.12,0,0,0,.44-3.57,2.9,2.9,0,0,0-2.36-1.61l-2.69-.51a3.5,3.5,0,0,1-1.65-.7,1.71,1.71,0,0,1-.57-1.37,1.56,1.56,0,0,1,.64-1.35,2.94,2.94,0,0,1,1.74-.46h15a2.9,2.9,0,0,1,1.76.46,1.65,1.65,0,0,1,.62,1.4,2,2,0,0,1-.34,1.06,2.69,2.69,0,0,1-1.58.91,9.8,9.8,0,0,0-3.85,1.6,8.46,8.46,0,0,0-2.2,3.47L538.81,614a56.78,56.78,0,0,1-4.81,9.52,14.62,14.62,0,0,1-4.76,4.81,11.4,11.4,0,0,1-5.69,1.4q-5,0-7.68-2.79a9,9,0,0,1-2.72-6.47,6.07,6.07,0,0,1,1-3.65,3.17,3.17,0,0,1,2.69-1.42,3.39,3.39,0,0,1,2.79,1.14,6.2,6.2,0,0,1,1.19,3.21l.26,1.6a3.76,3.76,0,0,0,1.19,2.79,3.71,3.71,0,0,0,2.38.83,5.39,5.39,0,0,0,3.23-1.06,11.82,11.82,0,0,0,3-3.47A43.23,43.23,0,0,0,534,614Z"/><path class="cls-1" d="M623.65,607.23a25.36,25.36,0,0,1-7.89-1.09,39.4,39.4,0,0,1-5.43-2.14,8.37,8.37,0,0,0-2.82-1.07,1.08,1.08,0,0,0-1,.65,7.49,7.49,0,0,0-.63,1.48,5.83,5.83,0,0,1-.67,1.47,1.33,1.33,0,0,1-1.19.65,1.82,1.82,0,0,1-1.45-.6,4.4,4.4,0,0,1-.82-1.83l-3.88-14.33a2.47,2.47,0,0,1,.1-1.76,1.91,1.91,0,0,1,1.24-1,2.57,2.57,0,0,1,1.66.24,3.59,3.59,0,0,1,1.34,1.57,26.57,26.57,0,0,0,5.77,7.25,25.2,25.2,0,0,0,7.37,4.5,22.06,22.06,0,0,0,8,1.55q6.4,0,9.91-3.49a11.43,11.43,0,0,0,3.49-8.36,13,13,0,0,0-1.35-6.15,15.08,15.08,0,0,0-5.3-5.43A53.27,53.27,0,0,0,618.89,574a47.76,47.76,0,0,1-12.83-6.24,22.13,22.13,0,0,1-6.91-7.73,20.13,20.13,0,0,1-2.14-9.21,18,18,0,0,1,10-16.68,23.07,23.07,0,0,1,10.73-2.41,24.64,24.64,0,0,1,7.68,1.06,38.14,38.14,0,0,1,5.23,2.12,7.59,7.59,0,0,0,3,1.06,1.33,1.33,0,0,0,1.3-1.06c.24-.7.52-1.39.82-2.06a1.53,1.53,0,0,1,1.45-1,2,2,0,0,1,1.53.59,5.38,5.38,0,0,1,1,2l4.6,15.06a2.66,2.66,0,0,1,0,2,2.35,2.35,0,0,1-1.32,1.14,2.25,2.25,0,0,1-1.61-.18,3.28,3.28,0,0,1-1.34-1.37,34.93,34.93,0,0,0-6.47-8.43,23.56,23.56,0,0,0-7.45-4.79,22.41,22.41,0,0,0-8.12-1.52,13.39,13.39,0,0,0-9.86,3.67,12.28,12.28,0,0,0-3.69,9.05,14.49,14.49,0,0,0,1.55,6.65,16.22,16.22,0,0,0,5.22,5.72,44.59,44.59,0,0,0,10.09,5.07A62.42,62.42,0,0,1,635,573.06a20.85,20.85,0,0,1,7,7.4,19.5,19.5,0,0,1,2.07,9.08,17.64,17.64,0,0,1-2.4,8.77,17.13,17.13,0,0,1-6.88,6.49A23.36,23.36,0,0,1,623.65,607.23Z"/><path class="cls-1" d="M657.79,561.5l-3-.36a2.36,2.36,0,0,1-1.29-.78,1.92,1.92,0,0,1-.47-1.24,1.66,1.66,0,0,1,.57-1.29,2.2,2.2,0,0,1,1.55-.52h2.38a4.57,4.57,0,0,0,2.49-.6,3.68,3.68,0,0,0,1.39-2.2l1.81-6.26a3.75,3.75,0,0,1,1.19-1.62A2.55,2.55,0,0,1,666,546a2,2,0,0,1,1.48.6,2.35,2.35,0,0,1,.59,1.73v45.88a7,7,0,0,0,1.55,4.84,5.4,5.4,0,0,0,4.25,1.73,7.55,7.55,0,0,0,4.19-1.13q.72-.46,1.29-.78a2.24,2.24,0,0,1,1.09-.31,1.45,1.45,0,0,1,1.14.57,1.8,1.8,0,0,1,.25,1.55,4.81,4.81,0,0,1-1.65,2.66,10.63,10.63,0,0,1-3.57,2.07,13.39,13.39,0,0,1-4.71.81,11.36,11.36,0,0,1-7.94-2.75q-3-2.73-3-8.27V565.48a4.42,4.42,0,0,0-.75-2.71A3.42,3.42,0,0,0,657.79,561.5Zm5.9,0v-4.24h15.78a3,3,0,0,1,1.75.41,1.57,1.57,0,0,1,.57,1.35,2.07,2.07,0,0,1-1,1.78,5.63,5.63,0,0,1-3.18.7Z"/><path class="cls-1" d="M715.31,556.48a25,25,0,0,1,12.83,3.23,23.33,23.33,0,0,1,8.7,8.88,28.16,28.16,0,0,1,0,25.94,23.55,23.55,0,0,1-8.77,9,25,25,0,0,1-12.93,3.28,24.73,24.73,0,0,1-12.83-3.26,23.08,23.08,0,0,1-8.67-9,26.93,26.93,0,0,1-3.13-13.12,25.61,25.61,0,0,1,3.18-12.82,23.44,23.44,0,0,1,8.77-8.88A25.32,25.32,0,0,1,715.31,556.48Zm4.3,45.32a14.41,14.41,0,0,0,7.94-4.09,17.19,17.19,0,0,0,4.32-8.12,25.32,25.32,0,0,0,0-10.81,26.4,26.4,0,0,0-4.19-10.5,17,17,0,0,0-7.27-6.06,15.92,15.92,0,0,0-9.28-.88,15.08,15.08,0,0,0-8.1,4.06,16.66,16.66,0,0,0-4.45,8.1,25.14,25.14,0,0,0-.08,10.81,25.85,25.85,0,0,0,4.27,10.58,17.52,17.52,0,0,0,7.42,6A16.18,16.18,0,0,0,719.61,601.8Z"/><path class="cls-1" d="M763.73,559.69l.32,12v25.92a3.54,3.54,0,0,0,.77,2.43,3.22,3.22,0,0,0,2.17,1l4.5.52a3,3,0,0,1,1.71.7,1.81,1.81,0,0,1,.57,1.37,1.65,1.65,0,0,1-.62,1.4,2.9,2.9,0,0,1-1.76.46H752.25a2.91,2.91,0,0,1-1.73-.46,1.56,1.56,0,0,1-.65-1.35,1.62,1.62,0,0,1,.54-1.32,4.75,4.75,0,0,1,1.58-.75l2.33-.51a4,4,0,0,0,2-1.17,3.45,3.45,0,0,0,.7-2.35V567.19a3.24,3.24,0,0,0-.57-2.12,2.3,2.3,0,0,0-1.6-.78l-4-.1a2.12,2.12,0,0,1-1.34-.6,1.55,1.55,0,0,1-.47-1.11,1.8,1.8,0,0,1,.54-1.32,4.13,4.13,0,0,1,1.58-.9l6.67-2.18q1.1-.36,2.07-.72a5,5,0,0,1,1.61-.36,2.08,2.08,0,0,1,1.65.64A3.25,3.25,0,0,1,763.73,559.69Zm-1.91,18.57a27.74,27.74,0,0,1,2.25-11.67,18.64,18.64,0,0,1,5.9-7.52,13,13,0,0,1,7.73-2.64,9.45,9.45,0,0,1,6.88,2.46,8.55,8.55,0,0,1,2.54,6.44,5.73,5.73,0,0,1-1.14,3.82,3.73,3.73,0,0,1-3,1.35,3.79,3.79,0,0,1-2.85-1.06,4.09,4.09,0,0,1-1-3V565a3,3,0,0,0-1-2.69,4.62,4.62,0,0,0-2.74-.77,8.76,8.76,0,0,0-5.33,1.94,14,14,0,0,0-4.26,5.77,23.35,23.35,0,0,0-1.68,9.46Z"/><path class="cls-1" d="M836.88,574.84a5.17,5.17,0,0,1-1.55,4.07,6.62,6.62,0,0,1-4.5,1.37H797.36V576.6h28.76c2.1,0,3.16-.91,3.16-2.74a13.07,13.07,0,0,0-3.5-9.34,12.16,12.16,0,0,0-9.28-3.69,14.44,14.44,0,0,0-8.2,2.4,16,16,0,0,0-5.61,6.73,23.46,23.46,0,0,0-2,10.06q0,10,5.12,15.39a17.38,17.38,0,0,0,13.19,5.4,16.1,16.1,0,0,0,9.88-2.84,14.72,14.72,0,0,0,5.23-6.47,5.5,5.5,0,0,1,.8-1.06,1.12,1.12,0,0,1,1-.33,1.08,1.08,0,0,1,1,.49,2.31,2.31,0,0,1,.31,1.26,13.06,13.06,0,0,1-2.74,7.22,18.69,18.69,0,0,1-6.93,5.54,22.87,22.87,0,0,1-10.14,2.14,24.2,24.2,0,0,1-12.6-3.15,21.23,21.23,0,0,1-8.17-8.75,29.89,29.89,0,0,1,.13-25.83,23.24,23.24,0,0,1,8.35-9.14,22.92,22.92,0,0,1,12.44-3.36,21.29,21.29,0,0,1,10,2.3,17.35,17.35,0,0,1,6.9,6.44A18,18,0,0,1,836.88,574.84Z"/></svg>