<svg id="Layer_1" data-name="Layer 1" xmlns="http://www.w3.org/2000/svg" viewBox="0 0 1080 1080"><defs><style>.cls-1{fill:#f0bfd2;}</style></defs><path class="cls-1" d="M933.29,608.17A395.61,395.61,0,0,0,867.72,451L539.94,2.17l-322,441.08a399.85,399.85,0,0,0,37.26,517.54,400.71,400.71,0,0,0,32.9,29.84c70.63,57.39,156.09,88.29,247.2,89.29,1.65.06,3.06.11,4.77.06,1.53,0,3,0,4.53-.06a400.71,400.71,0,0,0,249.73-91.17,418,418,0,0,0,32.79-30.37A398,398,0,0,0,939.82,680.16,403.37,403.37,0,0,0,933.29,608.17ZM541.47,58.5l203.71,737-1.77,1.17a163.94,163.94,0,0,1-42.9,20.72,161.27,161.27,0,0,1-42.5,7.36c-2.24.12-4.53.18-6.83.18a164.45,164.45,0,0,1-80.81-21.13L567,801.87l2.7-2.76a195.87,195.87,0,0,0,42.44-64.51A198.41,198.41,0,0,0,569.78,521a200.65,200.65,0,0,0-30-25.14,200.27,200.27,0,0,0-30.13,25.07,198.93,198.93,0,0,0-42.32,213.9,200.28,200.28,0,0,0,18.19,34.55,197.07,197.07,0,0,0,24.19,29.78l2.71,2.76L509,803.76a164.37,164.37,0,0,1-80.75,21.13c-2.12,0-4.3-.06-6.42-.18A163.23,163.23,0,0,1,339,798.64l-1.76-1.18ZM558,761.73a157.29,157.29,0,0,1-16.24,17.84l-2,1.88-2.06-1.88a159.91,159.91,0,0,1-16.24-17.78A164.74,164.74,0,0,1,537.7,540.55l2.06-1.95,2,1.95a164.92,164.92,0,0,1,38.19,184A162.75,162.75,0,0,1,558,761.73ZM266.84,924.18l-3.59-4.12A366.14,366.14,0,0,1,233.7,479.39a345,345,0,0,1,21.08-28.84L484.91,135.31ZM786.5,951A365.58,365.58,0,0,1,683,1017.41a360.15,360.15,0,0,1-66.22,20.84,367.35,367.35,0,0,1-69.33,7.94c-2.42.12-4.95.18-7.42.18s-5.06-.06-7.53-.18a364,364,0,0,1-236.55-93.05L294.56,952l33.32-120.72,3.29,1.89a203.5,203.5,0,0,0,35,15.42,196.48,196.48,0,0,0,62.1,9.88,198,198,0,0,0,109.83-33.07l1.64-1.12,1.59,1.12A198.24,198.24,0,0,0,675.67,857a202.74,202.74,0,0,0,38-8.59,199.35,199.35,0,0,0,37.61-17l3.3-1.94,33.25,120.3Zm32.55-33.61-3.65,4.18L600,142.26,824,449a344,344,0,0,1,23.31,31.9,366.1,366.1,0,0,1-28.25,436.43Z"/><path class="cls-1" d="M1080,540c0,298.23-241.77,540-540,540S0,838.23,0,540,241.77,0,540,0,1080,241.77,1080,540ZM540,33.81C260.44,33.81,33.81,260.44,33.81,540S260.44,1046.19,540,1046.19,1046.19,819.56,1046.19,540,819.56,33.81,540,33.81Z"/></svg>